<?xml version="1.0" encoding="UTF-8"?>
<!DOCTYPE svg PUBLIC "-//W3C//DTD SVG 1.1//EN" "http://www.w3.org/Graphics/SVG/1.1/DTD/svg11.dtd">
<svg xmlns="http://www.w3.org/2000/svg" version="1.1" width="496px" height="482px" style="shape-rendering:geometricPrecision; text-rendering:geometricPrecision; image-rendering:optimizeQuality; fill-rule:evenodd; clip-rule:evenodd" xmlns:xlink="http://www.w3.org/1999/xlink">
<g><path style="opacity:1" fill="#fefefd" d="M -0.5,-0.5 C 164.833,-0.5 330.167,-0.5 495.5,-0.5C 495.5,160.167 495.5,320.833 495.5,481.5C 330.167,481.5 164.833,481.5 -0.5,481.5C -0.5,320.833 -0.5,160.167 -0.5,-0.5 Z"/></g>
<g><path style="opacity:1" fill="#d4908b" d="M 260.5,25.5 C 264.846,25.3343 269.179,25.501 273.5,26C 274.737,26.2321 275.737,26.7321 276.5,27.5C 271.002,27.0475 265.669,26.3809 260.5,25.5 Z"/></g>
<g><path style="opacity:1" fill="#c1665f" d="M 209.5,27.5 C 207.095,28.7682 204.428,29.4349 201.5,29.5C 203.838,27.9605 206.505,27.2938 209.5,27.5 Z"/></g>
<g><path style="opacity:1" fill="#c62c22" d="M 260.5,25.5 C 265.669,26.3809 271.002,27.0475 276.5,27.5C 285.529,29.0392 294.529,30.7059 303.5,32.5C 307.94,34.5376 312.607,36.2042 317.5,37.5C 324.213,39.4189 330.547,42.0856 336.5,45.5C 333.61,45.722 330.943,45.0553 328.5,43.5C 326.51,44.8732 324.343,45.8732 322,46.5C 319.572,45.37 317.405,43.87 315.5,42C 313.167,41.6667 310.833,41.3333 308.5,41C 307.354,40.3551 306.354,39.5217 305.5,38.5C 303.729,39.0354 303.396,39.8687 304.5,41C 298.833,41.3333 293.167,41.6667 287.5,42C 286.027,42.7096 285.36,43.8762 285.5,45.5C 289.862,45.2437 294.195,45.077 298.5,45C 297.167,45.3333 295.833,45.6667 294.5,46C 293.167,47 293.167,48 294.5,49C 299.361,50.0504 304.195,50.2171 309,49.5C 311.157,50.385 311.99,52.0516 311.5,54.5C 307.214,53.2934 302.88,52.2934 298.5,51.5C 296.626,50.7148 294.626,50.0482 292.5,49.5C 290.485,48.0762 288.152,47.4095 285.5,47.5C 282.545,46.8413 279.545,46.5079 276.5,46.5C 273.493,44.8255 270.16,44.1588 266.5,44.5C 252.444,43.2587 238.444,43.2587 224.5,44.5C 219.25,44.3025 214.25,44.9692 209.5,46.5C 206.273,46.6761 203.273,47.3428 200.5,48.5C 196.475,48.6301 192.809,49.6301 189.5,51.5C 189.167,51.5 188.833,51.5 188.5,51.5C 185.084,51.5275 182.084,52.5275 179.5,54.5C 168.785,57.8517 158.452,62.185 148.5,67.5C 148.414,66.5041 148.748,65.6708 149.5,65C 147.443,64.6948 145.443,64.6948 143.5,65C 144.357,64.3109 145.023,63.4776 145.5,62.5C 148.033,61.7219 150.366,61.3885 152.5,61.5C 151.233,58.3651 148.9,57.0317 145.5,57.5C 145.5,56.5 145.5,55.5 145.5,54.5C 147.604,54.7989 149.604,54.4656 151.5,53.5C 150.833,52.1667 149.833,51.1667 148.5,50.5C 147.5,51.8333 146.5,51.8333 145.5,50.5C 143.998,51.0831 142.665,51.9164 141.5,53C 144.644,57.4042 143.644,60.7375 138.5,63C 133.578,63.7921 128.912,63.4588 124.5,62C 118.667,66.5 112.833,71 107,75.5C 107.152,77.0761 107.985,78.4095 109.5,79.5C 107.955,80.4519 106.288,80.7852 104.5,80.5C 104.715,78.8212 104.048,77.8212 102.5,77.5C 124.548,58.5027 149.548,44.5027 177.5,35.5C 181.745,34.5097 185.745,33.1763 189.5,31.5C 193.5,30.8333 197.5,30.1667 201.5,29.5C 204.428,29.4349 207.095,28.7682 209.5,27.5C 226.44,25.7294 243.44,25.0628 260.5,25.5 Z"/></g>
<g><path style="opacity:1" fill="#ebbeb6" d="M 189.5,31.5 C 185.745,33.1763 181.745,34.5097 177.5,35.5C 180.958,32.7466 184.958,31.4133 189.5,31.5 Z"/></g>
<g><path style="opacity:1" fill="#eaabaa" d="M 303.5,32.5 C 308.703,33.0094 313.37,34.6761 317.5,37.5C 312.607,36.2042 307.94,34.5376 303.5,32.5 Z"/></g>
<g><path style="opacity:1" fill="#cb2d20" d="M 336.5,45.5 C 340.958,47.2288 345.291,49.2288 349.5,51.5C 349.721,52.7348 350.388,53.7348 351.5,54.5C 349.144,55.6539 348.977,56.9873 351,58.5C 355.158,55.9652 358.325,57.1319 360.5,62C 358.045,63.5403 355.379,63.8736 352.5,63C 346.291,61.0745 339.958,59.4078 333.5,58C 332.978,57.4387 332.645,56.772 332.5,56C 333.613,54.6057 334.947,53.439 336.5,52.5C 334.704,51.8586 333.204,50.8586 332,49.5C 330.128,50.8237 329.295,52.3237 329.5,54C 325.6,53.9625 322.267,55.1291 319.5,57.5C 316.603,56.871 313.936,55.871 311.5,54.5C 311.99,52.0516 311.157,50.385 309,49.5C 304.195,50.2171 299.361,50.0504 294.5,49C 293.167,48 293.167,47 294.5,46C 295.833,45.6667 297.167,45.3333 298.5,45C 294.195,45.077 289.862,45.2437 285.5,45.5C 285.36,43.8762 286.027,42.7096 287.5,42C 293.167,41.6667 298.833,41.3333 304.5,41C 303.396,39.8687 303.729,39.0354 305.5,38.5C 306.354,39.5217 307.354,40.3551 308.5,41C 310.833,41.3333 313.167,41.6667 315.5,42C 317.405,43.87 319.572,45.37 322,46.5C 324.343,45.8732 326.51,44.8732 328.5,43.5C 330.943,45.0553 333.61,45.722 336.5,45.5 Z"/></g>
<g><path style="opacity:1" fill="#efa8a1" d="M 224.5,44.5 C 219.731,45.889 214.731,46.5557 209.5,46.5C 214.25,44.9692 219.25,44.3025 224.5,44.5 Z"/></g>
<g><path style="opacity:1" fill="#dc8480" d="M 266.5,44.5 C 270.16,44.1588 273.493,44.8255 276.5,46.5C 272.96,46.2474 269.627,45.5808 266.5,44.5 Z"/></g>
<g><path style="opacity:1" fill="#fdf8f6" d="M 298.5,51.5 C 302.88,52.2934 307.214,53.2934 311.5,54.5C 313.936,55.871 316.603,56.871 319.5,57.5C 336.379,65.1459 352.379,74.4793 367.5,85.5C 381.464,96.4638 394.131,108.797 405.5,122.5C 418.643,140.117 428.643,159.45 435.5,180.5C 437.268,187.381 438.435,194.381 439,201.5C 439.671,202.252 440.504,202.586 441.5,202.5C 442.546,205.728 443.212,209.061 443.5,212.5C 443.189,217.766 443.855,222.766 445.5,227.5C 446.739,239.506 446.739,251.506 445.5,263.5C 444.313,266.946 443.646,270.613 443.5,274.5C 443.252,278.906 442.585,283.24 441.5,287.5C 439.96,289.838 439.294,292.505 439.5,295.5C 435.767,308.083 431.267,320.417 426,332.5C 423.065,337.192 420.231,341.858 417.5,346.5C 414.542,349.918 411.542,353.418 408.5,357C 408.833,357.333 409.167,357.667 409.5,358C 408.027,358.71 407.36,359.876 407.5,361.5C 383.218,395.975 351.218,420.308 311.5,434.5C 304.208,436.626 296.874,438.626 289.5,440.5C 289.825,438.868 290.825,437.868 292.5,437.5C 295.878,436.909 299.545,436.076 303.5,435C 304.061,433.324 305.061,431.991 306.5,431C 309.199,431.438 311.865,431.272 314.5,430.5C 311.603,427.225 307.937,425.892 303.5,426.5C 303.191,429.346 301.525,430.846 298.5,431C 292.158,431.475 285.824,431.975 279.5,432.5C 279.189,437.159 276.856,438.493 272.5,436.5C 273.348,434.591 273.682,432.591 273.5,430.5C 272.325,430.281 271.325,430.614 270.5,431.5C 271.681,433.198 271.681,434.865 270.5,436.5C 263.131,440.639 259.464,438.806 259.5,431C 248.833,430.667 238.167,430.333 227.5,430C 224.621,429.454 221.954,428.621 219.5,427.5C 221.167,427.5 222.833,427.5 224.5,427.5C 226.948,428.473 229.615,428.806 232.5,428.5C 243.326,429.659 254.326,429.826 265.5,429C 267.058,428.79 268.391,428.29 269.5,427.5C 270.833,427.5 272.167,427.5 273.5,427.5C 273.5,426.5 273.5,425.5 273.5,424.5C 274.793,425.842 275.626,427.509 276,429.5C 277.122,425.828 279.289,424.828 282.5,426.5C 284.58,426.314 286.08,425.314 287,423.5C 287.167,333.999 287.667,244.666 288.5,155.5C 288.5,159.833 288.5,164.167 288.5,168.5C 288.5,253.167 288.5,337.833 288.5,422.5C 294.453,422.325 299.786,420.658 304.5,417.5C 311.815,415.676 318.815,413.01 325.5,409.5C 326.499,311.335 326.833,213.001 326.5,114.5C 324.901,114.232 323.568,114.566 322.5,115.5C 313.895,118.093 306.561,122.76 300.5,129.5C 300.423,128.25 299.756,127.417 298.5,127C 299.448,126.517 300.448,126.351 301.5,126.5C 301.421,125.07 301.754,123.736 302.5,122.5C 308.02,119.187 307.687,118.02 301.5,119C 299.757,120.11 298.424,121.61 297.5,123.5C 296.334,121.635 296.667,119.968 298.5,118.5C 297.478,117.646 296.645,116.646 296,115.5C 295.014,116.171 293.847,116.171 292.5,115.5C 293.625,113.871 294.959,112.371 296.5,111C 301.735,106.916 307.069,103.083 312.5,99.5C 318.791,97.5397 323.124,93.5397 325.5,87.5C 325.408,84.0471 324.075,81.2138 321.5,79C 317.303,76.5464 312.97,74.3798 308.5,72.5C 304.92,70.3692 301.253,68.2026 297.5,66C 293.514,65.5012 289.514,65.3345 285.5,65.5C 281.645,62.9645 277.312,61.9645 272.5,62.5C 268.5,62.1667 264.5,61.8333 260.5,61.5C 258.257,60.1883 255.59,59.5217 252.5,59.5C 242.151,59.0646 231.818,58.3979 221.5,57.5C 220.092,56.7568 218.759,55.9234 217.5,55C 221,54.8333 224.5,54.6667 228,54.5C 238.495,55.3332 248.995,55.4999 259.5,55C 259.957,54.586 260.291,54.086 260.5,53.5C 248.792,52.9136 237.126,52.0802 225.5,51C 226.551,49.6152 227.884,48.6152 229.5,48C 239.33,45.5425 249.33,44.8758 259.5,46C 259.957,46.414 260.291,46.914 260.5,47.5C 270.592,47.9121 279.926,49.9121 288.5,53.5C 291.705,52.2331 295.038,51.5664 298.5,51.5 Z"/></g>
<g><path style="opacity:1" fill="#d37476" d="M 285.5,47.5 C 288.152,47.4095 290.485,48.0762 292.5,49.5C 289.848,49.5905 287.515,48.9238 285.5,47.5 Z"/></g>
<g><path style="opacity:1" fill="#f6c2be" d="M 200.5,48.5 C 200.389,49.1174 200.056,49.6174 199.5,50C 196.173,50.6103 192.839,51.1103 189.5,51.5C 192.809,49.6301 196.475,48.6301 200.5,48.5 Z"/></g>
<g><path style="opacity:1" fill="#f2adaa" d="M 188.5,51.5 C 185.855,53.3104 182.855,54.3104 179.5,54.5C 182.084,52.5275 185.084,51.5275 188.5,51.5 Z"/></g>
<g><path style="opacity:1" fill="#dd8e8a" d="M 241.5,60.5 C 230.959,61.2888 220.292,62.2888 209.5,63.5C 213.264,62.1682 217.264,61.3349 221.5,61C 228.158,60.5004 234.825,60.3337 241.5,60.5 Z"/></g>
<g><path style="opacity:1" fill="#f5cac7" d="M 272.5,63.5 C 272.5,63.1667 272.5,62.8333 272.5,62.5C 277.312,61.9645 281.645,62.9645 285.5,65.5C 281.24,64.4147 276.906,63.748 272.5,63.5 Z"/></g>
<g><path style="opacity:1" fill="#bf2b22" d="M 241.5,60.5 C 247.81,61.1904 254.143,61.5237 260.5,61.5C 264.5,61.8333 268.5,62.1667 272.5,62.5C 272.5,62.8333 272.5,63.1667 272.5,63.5C 271.761,63.369 271.094,63.5357 270.5,64C 274.414,64.8966 274.248,65.3966 270,65.5C 263.661,64.2171 257.328,64.2171 251,65.5C 248.58,63.6021 245.746,62.6021 242.5,62.5C 242.5,63.5 242.5,64.5 242.5,65.5C 230.884,67.3019 218.551,69.3019 205.5,71.5C 203.68,71.3507 202.18,70.6841 201,69.5C 197.51,71.1576 194.01,72.8243 190.5,74.5C 186.808,73.4105 183.142,73.4105 179.5,74.5C 179.709,75.086 180.043,75.586 180.5,76C 176.179,75.5675 172.846,77.0675 170.5,80.5C 169.549,79.6744 168.549,79.5078 167.5,80C 163.334,85.5307 164.001,90.5307 169.5,95C 171.945,96.778 174.611,98.1113 177.5,99C 176.944,99.3826 176.611,99.8826 176.5,100.5C 171.78,98.3786 167.613,95.3786 164,91.5C 162.543,88.634 162.21,85.634 163,82.5C 169.464,76.1995 176.964,71.8662 185.5,69.5C 189.324,69.7898 192.658,68.7898 195.5,66.5C 200.165,65.5002 204.832,64.5002 209.5,63.5C 220.292,62.2888 230.959,61.2888 241.5,60.5 Z"/></g>
<g><path style="opacity:1" fill="#f1cdc7" d="M 285.5,65.5 C 289.514,65.3345 293.514,65.5012 297.5,66C 301.253,68.2026 304.92,70.3692 308.5,72.5C 300.879,69.683 293.212,67.3497 285.5,65.5 Z"/></g>
<g><path style="opacity:1" fill="#c9594e" d="M 195.5,66.5 C 192.658,68.7898 189.324,69.7898 185.5,69.5C 188.452,67.5902 191.786,66.5902 195.5,66.5 Z"/></g>
<g><path style="opacity:1" fill="#fdfcfb" d="M 161.5,114.5 C 160.334,212.999 160.168,311.666 161,410.5C 165.369,413.633 170.203,415.633 175.5,416.5C 178.341,416.56 181.007,417.226 183.5,418.5C 186.008,420.554 189.008,421.554 192.5,421.5C 192.833,421.5 193.167,421.5 193.5,421.5C 193.611,422.117 193.944,422.617 194.5,423C 196.473,423.495 198.473,423.662 200.5,423.5C 201.666,333.668 201.832,243.668 201,153.5C 200.901,151.347 200.067,149.681 198.5,148.5C 195.525,142.549 192.525,136.549 189.5,130.5C 189.214,127.07 187.38,124.736 184,123.5C 183.316,122.216 183.483,121.049 184.5,120C 183.833,119.667 183.167,119.333 182.5,119C 186.148,116.681 189.981,114.848 194,113.5C 194.671,114.252 195.504,114.586 196.5,114.5C 196.586,115.496 196.252,116.329 195.5,117C 196.448,117.483 197.448,117.649 198.5,117.5C 198.595,120.272 199.929,122.272 202.5,123.5C 203.259,126.157 203.926,128.823 204.5,131.5C 204.023,132.478 203.357,133.311 202.5,134C 203.3,138.08 203.8,142.247 204,146.5C 204.368,147.91 205.201,148.91 206.5,149.5C 207.167,147.167 207.833,144.833 208.5,142.5C 210.375,141.164 211.708,141.664 212.5,144C 211.315,145.353 209.981,146.52 208.5,147.5C 209.991,148.244 211.491,148.91 213,149.5C 213.559,153.186 214.226,156.853 215,160.5C 215.167,235.668 215.667,310.668 216.5,385.5C 216.205,387.735 216.539,389.735 217.5,391.5C 217.333,403.171 217.5,414.838 218,426.5C 218.383,427.056 218.883,427.389 219.5,427.5C 221.954,428.621 224.621,429.454 227.5,430C 238.167,430.333 248.833,430.667 259.5,431C 259.464,438.806 263.131,440.639 270.5,436.5C 271.681,434.865 271.681,433.198 270.5,431.5C 271.325,430.614 272.325,430.281 273.5,430.5C 273.682,432.591 273.348,434.591 272.5,436.5C 276.856,438.493 279.189,437.159 279.5,432.5C 285.824,431.975 292.158,431.475 298.5,431C 301.525,430.846 303.191,429.346 303.5,426.5C 307.937,425.892 311.603,427.225 314.5,430.5C 311.865,431.272 309.199,431.438 306.5,431C 305.061,431.991 304.061,433.324 303.5,435C 299.545,436.076 295.878,436.909 292.5,437.5C 290.825,437.868 289.825,438.868 289.5,440.5C 260.555,448.025 231.555,448.358 202.5,441.5C 200.485,440.076 198.152,439.41 195.5,439.5C 193.485,438.076 191.152,437.41 188.5,437.5C 186.485,436.076 184.152,435.41 181.5,435.5C 180.508,435.672 179.842,435.338 179.5,434.5C 175.093,432.789 171.093,430.289 167.5,427C 163.493,425.138 159.493,424.305 155.5,424.5C 137.405,416.46 121.405,405.46 107.5,391.5C 107.131,389.559 106.464,387.725 105.5,386C 106.381,385.292 107.047,384.458 107.5,383.5C 107.435,383.062 107.601,382.728 108,382.5C 111.85,385.354 115.35,388.521 118.5,392C 120.906,392.779 122.573,391.946 123.5,389.5C 124.478,389.977 125.311,390.643 126,391.5C 126.333,391.167 126.667,390.833 127,390.5C 128.41,391.787 129.91,392.954 131.5,394C 128.854,394.497 126.187,394.664 123.5,394.5C 123.5,395.833 123.5,397.167 123.5,398.5C 127.245,398.203 129.911,399.703 131.5,403C 131.355,403.772 131.022,404.439 130.5,405C 135.488,405.087 140.488,404.92 145.5,404.5C 145.433,403.041 145.766,401.708 146.5,400.5C 146.832,352.997 146.499,305.664 145.5,258.5C 143.034,257.366 140.367,257.199 137.5,258C 136.944,258.383 136.611,258.883 136.5,259.5C 134.585,259.216 132.919,259.549 131.5,260.5C 125.602,263.042 120.435,266.708 116,271.5C 113.88,276.226 111.214,280.559 108,284.5C 106.605,284.22 105.438,283.553 104.5,282.5C 102.952,279.177 101.619,275.843 100.5,272.5C 100.279,269.933 99.6118,267.599 98.5,265.5C 96.4443,253.625 95.9443,241.625 97,229.5C 97.21,227.942 97.71,226.609 98.5,225.5C 99.522,222.639 101.022,219.972 103,217.5C 103.544,214.375 104.377,211.375 105.5,208.5C 108.287,205.704 110.287,206.371 111.5,210.5C 110.68,214.183 112.013,216.517 115.5,217.5C 119.303,222.967 124.303,226.967 130.5,229.5C 135.261,232.361 140.261,233.028 145.5,231.5C 146.333,185.002 146.833,138.335 147,91.5C 148.824,90.7617 150.824,90.4284 153,90.5C 153.234,86.6858 154.068,83.0192 155.5,79.5C 155.291,78.914 154.957,78.414 154.5,78C 156.727,77.879 158.56,77.0456 160,75.5C 161.943,75.9589 163.276,74.9589 164,72.5C 164.667,74.5 164.667,76.5 164,78.5C 156.997,91.9172 160.831,100.084 175.5,103C 173.639,104.073 171.806,105.24 170,106.5C 167.79,104.889 165.29,104.222 162.5,104.5C 162.5,105.5 162.5,106.5 162.5,107.5C 164.665,107.116 166.332,107.783 167.5,109.5C 166.04,111.972 164.04,113.639 161.5,114.5 Z"/></g>
<g><path style="opacity:1" fill="#c52c23" d="M 312.5,99.5 C 307.069,103.083 301.735,106.916 296.5,111C 294.959,112.371 293.625,113.871 292.5,115.5C 288.806,118.527 285.473,121.86 282.5,125.5C 281.417,125.539 280.417,125.873 279.5,126.5C 276.807,130.349 273.974,134.016 271,137.5C 270.438,139.866 270.604,142.199 271.5,144.5C 271.281,145.938 270.781,147.271 270,148.5C 269.244,241.17 269.411,333.837 270.5,426.5C 269.833,426.5 269.5,426.833 269.5,427.5C 257.183,428.285 244.85,428.618 232.5,428.5C 229.615,428.806 226.948,428.473 224.5,427.5C 239.183,426.766 253.849,425.766 268.5,424.5C 269.609,422.786 268.942,422.119 266.5,422.5C 267.779,382.275 267.779,342.108 266.5,302C 267.36,292.513 268.027,283.013 268.5,273.5C 266.281,242.541 265.947,211.541 267.5,180.5C 267.167,172.167 266.833,163.833 266.5,155.5C 265.826,170.063 265.159,184.563 264.5,199C 265.919,202.163 265.585,205.163 263.5,208C 264.349,211.107 264.683,214.107 264.5,217C 263.67,255.762 263.17,294.596 263,333.5C 262.273,273.828 262.606,214.161 264,154.5C 264.695,150.467 265.528,146.467 266.5,142.5C 267.881,142 268.547,141 268.5,139.5C 267.634,132.839 265.634,132.173 262.5,137.5C 263.939,139.343 263.772,141.01 262,142.5C 261.501,146.486 261.334,150.486 261.5,154.5C 259.08,154.292 256.747,154.626 254.5,155.5C 253.734,161.982 252.401,168.149 250.5,174C 251.956,180.375 252.622,186.875 252.5,193.5C 250.896,210.341 250.063,227.341 250,244.5C 246.678,247.147 246.844,249.647 250.5,252C 249.941,252.725 249.608,253.558 249.5,254.5C 252.159,264.072 252.659,273.739 251,283.5C 250.66,306.989 250.493,330.156 250.5,353C 250.718,357.588 251.385,362.088 252.5,366.5C 251.627,375.366 251.294,384.199 251.5,393C 252.775,396.898 253.775,400.898 254.5,405C 253.227,407.549 252.727,410.049 253,412.5C 251.938,413.899 250.605,414.899 249,415.5C 244.688,413.864 240.188,413.031 235.5,413C 234.833,411 233.5,409.667 231.5,409C 232.833,401.333 232.833,393.667 231.5,386C 232.416,385.626 233.25,385.126 234,384.5C 234.827,380.459 234.66,376.459 233.5,372.5C 232.914,372.291 232.414,371.957 232,371.5C 231.833,355.667 231.667,339.833 231.5,324C 231.934,295.472 232.1,266.972 232,238.5C 232.414,238.043 232.914,237.709 233.5,237.5C 234.5,210.175 234.833,182.841 234.5,155.5C 231.084,156.134 229.084,154.8 228.5,151.5C 229.167,149.5 229.833,147.5 230.5,145.5C 230.304,143.714 229.471,142.381 228,141.5C 227.501,137.514 227.334,133.514 227.5,129.5C 225.833,129.5 224.167,129.5 222.5,129.5C 219.845,124.15 221.512,121.816 227.5,122.5C 227.5,120.833 227.5,119.167 227.5,117.5C 225.833,117.5 224.167,117.5 222.5,117.5C 223.407,109.182 223.573,100.849 223,92.5C 214.25,91.3644 205.416,90.5311 196.5,90C 197.456,86.6064 197.789,83.1064 197.5,79.5C 201.555,79.8242 205.555,79.4909 209.5,78.5C 209.808,77.6919 210.308,77.0253 211,76.5C 214,76.8333 217,77.1667 220,77.5C 221.093,75.6508 222.426,73.9842 224,72.5C 231.496,73.4403 238.829,73.4403 246,72.5C 247.252,74.0009 248.252,75.6675 249,77.5C 249.741,76.3595 250.575,76.3595 251.5,77.5C 252.814,76.6872 253.981,75.6872 255,74.5C 256.699,75.4061 258.533,75.7394 260.5,75.5C 260.5,76.5 260.5,77.5 260.5,78.5C 264.64,78.3107 268.64,77.6441 272.5,76.5C 273.003,81.5 273.336,81.1667 273.5,75.5C 278.875,75.1718 284.208,75.5052 289.5,76.5C 287.726,77.1867 286.059,78.0201 284.5,79C 285.406,80.6995 285.739,82.5328 285.5,84.5C 288.493,85.1346 291.493,85.3013 294.5,85C 292.996,83.6631 291.996,81.9964 291.5,80C 293.529,79.3189 295.529,78.9856 297.5,79C 299.108,81.609 301.441,82.9423 304.5,83C 305.355,85.4532 307.022,87.7866 309.5,90C 308.833,91.3333 307.833,92.3333 306.5,93C 307.956,93.4226 308.456,94.2559 308,95.5C 306.513,96.1552 305.347,97.1552 304.5,98.5C 307.086,99.48 309.753,99.8134 312.5,99.5 Z"/></g>
<g><path style="opacity:1" fill="#fcf5f0" d="M 266.5,44.5 C 269.627,45.5808 272.96,46.2474 276.5,46.5C 279.545,46.5079 282.545,46.8413 285.5,47.5C 287.515,48.9238 289.848,49.5905 292.5,49.5C 294.626,50.0482 296.626,50.7148 298.5,51.5C 295.038,51.5664 291.705,52.2331 288.5,53.5C 279.926,49.9121 270.592,47.9121 260.5,47.5C 260.291,46.914 259.957,46.414 259.5,46C 249.33,44.8758 239.33,45.5425 229.5,48C 227.884,48.6152 226.551,49.6152 225.5,51C 237.126,52.0802 248.792,52.9136 260.5,53.5C 260.291,54.086 259.957,54.586 259.5,55C 248.995,55.4999 238.495,55.3332 228,54.5C 224.5,54.6667 221,54.8333 217.5,55C 218.759,55.9234 220.092,56.7568 221.5,57.5C 231.818,58.3979 242.151,59.0646 252.5,59.5C 255.59,59.5217 258.257,60.1883 260.5,61.5C 254.143,61.5237 247.81,61.1904 241.5,60.5C 234.825,60.3337 228.158,60.5004 221.5,61C 217.264,61.3349 213.264,62.1682 209.5,63.5C 204.832,64.5002 200.165,65.5002 195.5,66.5C 191.786,66.5902 188.452,67.5902 185.5,69.5C 176.964,71.8662 169.464,76.1995 163,82.5C 162.21,85.634 162.543,88.634 164,91.5C 167.613,95.3786 171.78,98.3786 176.5,100.5C 183.998,104.002 190.665,108.668 196.5,114.5C 195.504,114.586 194.671,114.252 194,113.5C 189.981,114.848 186.148,116.681 182.5,119C 183.167,119.333 183.833,119.667 184.5,120C 183.483,121.049 183.316,122.216 184,123.5C 187.38,124.736 189.214,127.07 189.5,130.5C 186.833,128.167 184.167,125.833 181.5,123.5C 180.5,122.833 179.5,122.167 178.5,121.5C 174.626,119.315 170.626,117.315 166.5,115.5C 165.081,114.549 163.415,114.216 161.5,114.5C 164.04,113.639 166.04,111.972 167.5,109.5C 166.332,107.783 164.665,107.116 162.5,107.5C 162.5,106.5 162.5,105.5 162.5,104.5C 165.29,104.222 167.79,104.889 170,106.5C 171.806,105.24 173.639,104.073 175.5,103C 160.831,100.084 156.997,91.9172 164,78.5C 164.667,76.5 164.667,74.5 164,72.5C 163.276,74.9589 161.943,75.9589 160,75.5C 158.56,77.0456 156.727,77.879 154.5,78C 154.957,78.414 155.291,78.914 155.5,79.5C 154.068,83.0192 153.234,86.6858 153,90.5C 150.824,90.4284 148.824,90.7617 147,91.5C 146.833,138.335 146.333,185.002 145.5,231.5C 145.833,184.495 145.5,137.495 144.5,90.5C 143.893,90.6236 143.56,90.9569 143.5,91.5C 143.167,91.5 142.833,91.5 142.5,91.5C 140.343,93.4121 138.009,95.0787 135.5,96.5C 136.812,93.9755 137.312,91.3088 137,88.5C 134.908,86.245 132.408,84.5784 129.5,83.5C 123.749,85.4259 123.416,87.4259 128.5,89.5C 130.111,88.9616 131.444,88.9616 132.5,89.5C 130.453,91.0152 128.119,91.8485 125.5,92C 128.167,92.6667 128.167,93.3333 125.5,94C 122.867,93.7468 120.2,93.7468 117.5,94C 115.371,95.9744 113.038,97.641 110.5,99C 113.57,102.01 112.903,103.843 108.5,104.5C 107.123,106.289 106.123,108.289 105.5,110.5C 104.675,111.386 103.675,111.719 102.5,111.5C 102.833,108.5 101.5,107.167 98.5,107.5C 113.073,91.5982 129.74,78.2649 148.5,67.5C 158.452,62.185 168.785,57.8517 179.5,54.5C 182.855,54.3104 185.855,53.3104 188.5,51.5C 188.833,51.5 189.167,51.5 189.5,51.5C 192.839,51.1103 196.173,50.6103 199.5,50C 200.056,49.6174 200.389,49.1174 200.5,48.5C 203.273,47.3428 206.273,46.6761 209.5,46.5C 214.731,46.5557 219.731,45.889 224.5,44.5C 238.444,43.2587 252.444,43.2587 266.5,44.5 Z"/></g>
<g><path style="opacity:1" fill="#b72b20" d="M 405.5,122.5 C 394.131,108.797 381.464,96.4638 367.5,85.5C 369.722,85.822 371.556,85.1554 373,83.5C 372.737,84.9506 372.904,86.2839 373.5,87.5C 374.962,88.4709 376.295,88.1376 377.5,86.5C 379.028,87.8613 380.695,89.028 382.5,90C 381.552,90.4828 380.552,90.6495 379.5,90.5C 380.078,94.5211 382.078,95.8544 385.5,94.5C 385.67,95.8221 385.337,96.9887 384.5,98C 387.386,98.3131 390.219,99.4797 393,101.5C 393.333,103.5 393.667,105.5 394,107.5C 395.079,109.394 396.413,109.727 398,108.5C 398.767,112.111 400.6,115.111 403.5,117.5C 404.456,119.075 405.123,120.742 405.5,122.5 Z"/></g>
<g><path style="opacity:1" fill="#cb2f22" d="M 148.5,67.5 C 129.74,78.2649 113.073,91.5982 98.5,107.5C 89.0589,116.941 80.7256,127.274 73.5,138.5C 71.4362,138.762 70.1029,139.929 69.5,142C 68.552,142.483 67.552,142.649 66.5,142.5C 66.8388,146.491 65.5054,149.824 62.5,152.5C 61.1374,151.121 60.1374,151.287 59.5,153C 58.6681,155.478 58.5014,157.978 59,160.5C 58.3333,161.833 57.6667,161.833 57,160.5C 56.4784,163.496 54.9784,165.829 52.5,167.5C 51.6816,170.107 51.1816,172.774 51,175.5C 50.3333,174.167 49.3333,173.167 48,172.5C 47.3333,169.167 47.3333,165.833 48,162.5C 52.2806,159.716 52.4473,156.716 48.5,153.5C 47.5344,151.604 47.2011,149.604 47.5,147.5C 60.5345,120.117 78.8678,96.7841 102.5,77.5C 104.048,77.8212 104.715,78.8212 104.5,80.5C 106.288,80.7852 107.955,80.4519 109.5,79.5C 107.985,78.4095 107.152,77.0761 107,75.5C 112.833,71 118.667,66.5 124.5,62C 128.912,63.4588 133.578,63.7921 138.5,63C 143.644,60.7375 144.644,57.4042 141.5,53C 142.665,51.9164 143.998,51.0831 145.5,50.5C 146.5,51.8333 147.5,51.8333 148.5,50.5C 149.833,51.1667 150.833,52.1667 151.5,53.5C 149.604,54.4656 147.604,54.7989 145.5,54.5C 145.5,55.5 145.5,56.5 145.5,57.5C 148.9,57.0317 151.233,58.3651 152.5,61.5C 150.366,61.3885 148.033,61.7219 145.5,62.5C 145.023,63.4776 144.357,64.3109 143.5,65C 145.443,64.6948 147.443,64.6948 149.5,65C 148.748,65.6708 148.414,66.5041 148.5,67.5 Z"/></g>
<g><path style="opacity:1" fill="#faddd4" d="M 133.5,97.5 C 125.842,103.826 118.508,110.492 111.5,117.5C 111.377,113.96 113.043,111.96 116.5,111.5C 116.33,110.178 116.663,109.011 117.5,108C 121.325,105.246 124.991,102.246 128.5,99C 130.025,97.9914 131.692,97.4914 133.5,97.5 Z"/></g>
<g><path style="opacity:1" fill="#c72b21" d="M 344.5,90.5 C 351.329,94.4225 357.662,99.0891 363.5,104.5C 365.408,108.08 368.074,111.08 371.5,113.5C 370.5,114.333 369.5,115.167 368.5,116C 371.177,117.463 372.177,119.463 371.5,122C 372.025,122.692 372.692,123.192 373.5,123.5C 378.01,119.053 380.343,120.053 380.5,126.5C 381.552,126.351 382.552,126.517 383.5,127C 386.059,129.439 388.392,132.105 390.5,135C 391.094,135.464 391.761,135.631 392.5,135.5C 392.5,135.833 392.5,136.167 392.5,136.5C 394.674,140.317 396.674,144.317 398.5,148.5C 397.088,149.806 395.421,150.64 393.5,151C 395.7,153.593 398.367,154.26 401.5,153C 402.939,155.775 404.772,158.275 407,160.5C 407.311,161.742 406.811,162.742 405.5,163.5C 409.76,168.356 412.094,174.023 412.5,180.5C 413.517,177.972 414.684,177.972 416,180.5C 416.455,183.781 417.289,186.948 418.5,190C 416.754,193.047 417.754,194.214 421.5,193.5C 421.5,194.5 421.5,195.5 421.5,196.5C 421.843,201.914 422.677,207.247 424,212.5C 424.333,211.833 424.667,211.167 425,210.5C 425.21,212.058 425.71,213.391 426.5,214.5C 427.65,220.102 428.316,225.769 428.5,231.5C 416.044,233.135 406.378,228.802 399.5,218.5C 398.234,215.699 397.401,212.699 397,209.5C 396.333,210.833 395.667,210.833 395,209.5C 393.632,208.007 393.465,206.507 394.5,205C 390.625,203.653 390.625,202.486 394.5,201.5C 394.333,201.167 394.167,200.833 394,200.5C 392.326,199.935 390.493,199.768 388.5,200C 387.663,198.989 387.33,197.822 387.5,196.5C 383.5,196.5 379.5,196.5 375.5,196.5C 375.5,195.5 375.5,194.5 375.5,193.5C 382.899,193.028 390.232,193.028 397.5,193.5C 397.5,189.167 397.5,184.833 397.5,180.5C 395.833,180.5 394.167,180.5 392.5,180.5C 392.207,176.563 392.54,172.73 393.5,169C 392.584,168.626 391.75,168.126 391,167.5C 390.548,164.123 389.882,160.789 389,157.5C 387.542,162.594 386.709,162.261 386.5,156.5C 387.5,156.5 388.5,156.5 389.5,156.5C 389.778,154.654 389.111,153.32 387.5,152.5C 386.516,149.572 386.183,146.572 386.5,143.5C 385.167,143.5 383.833,143.5 382.5,143.5C 382.5,145.167 382.5,146.833 382.5,148.5C 381.5,148.5 380.5,148.5 379.5,148.5C 379.688,144.909 378.855,141.576 377,138.5C 373.804,142.845 372.137,142.178 372,136.5C 369.266,135.638 369.099,134.805 371.5,134C 369.194,132.207 368.861,130.04 370.5,127.5C 369.817,124.539 368.984,124.205 368,126.5C 366.736,124.393 364.903,123.393 362.5,123.5C 362.261,121.533 362.594,119.699 363.5,118C 361.866,117.506 360.199,117.34 358.5,117.5C 358.561,120.488 357.895,123.321 356.5,126C 358.069,132.527 358.735,139.193 358.5,146C 357.334,161.483 356.501,176.983 356,192.5C 354.806,194.623 354.14,196.957 354,199.5C 353.808,197.423 353.308,195.423 352.5,193.5C 350.934,203.178 351.268,212.678 353.5,222C 353.419,240.154 353.085,258.321 352.5,276.5C 352.463,281.161 353.296,285.161 355,288.5C 355.229,298.356 355.729,308.189 356.5,318C 353.137,326.324 352.471,334.824 354.5,343.5C 353.746,345.64 353.079,347.806 352.5,350C 353.893,353.399 355.227,357.566 356.5,362.5C 357.21,365.799 357.543,369.133 357.5,372.5C 358.873,372.343 360.207,372.51 361.5,373C 359.962,374.932 358.795,377.099 358,379.5C 356.323,380.516 354.657,381.516 353,382.5C 352.05,381.978 351.216,381.311 350.5,380.5C 350.318,384.838 352.652,387.338 357.5,388C 356.748,388.671 356.414,389.504 356.5,390.5C 355.833,390.833 355.167,391.167 354.5,391.5C 354.565,391.062 354.399,390.728 354,390.5C 351.776,392.054 349.276,393.054 346.5,393.5C 345.667,295.835 345.167,198.168 345,100.5C 344.833,199.668 344.333,298.668 343.5,397.5C 343.167,294.999 343.501,192.665 344.5,90.5 Z"/></g>
<g><path style="opacity:1" fill="#c92d21" d="M 94.5,138.5 C 95.4411,136.228 96.7745,134.228 98.5,132.5C 99.675,132.719 100.675,132.386 101.5,131.5C 109.504,121.295 118.504,112.129 128.5,104C 130.797,103.982 133.131,104.149 135.5,104.5C 135.466,110.372 134.466,116.039 132.5,121.5C 127.519,122.961 122.519,125.294 117.5,128.5C 119.171,130.51 119.838,132.843 119.5,135.5C 115.07,135.43 112.737,137.597 112.5,142C 110.866,142.494 109.199,142.66 107.5,142.5C 107.085,146.457 106.752,150.457 106.5,154.5C 103.632,155.017 100.966,155.35 98.5,155.5C 94.9536,154.121 92.6202,151.621 91.5,148C 92.666,144.848 93.666,141.681 94.5,138.5 Z"/></g>
<g><path style="opacity:1" fill="#c42c21" d="M 142.5,91.5 C 143.495,137.761 143.828,184.095 143.5,230.5C 141.585,230.216 139.919,230.549 138.5,231.5C 136.007,230.226 133.341,229.56 130.5,229.5C 124.303,226.967 119.303,222.967 115.5,217.5C 114.921,214.669 113.588,212.336 111.5,210.5C 110.287,206.371 108.287,205.704 105.5,208.5C 103.496,209.673 101.996,211.34 101,213.5C 99.7173,217.414 98.8839,221.414 98.5,225.5C 97.71,226.609 97.21,227.942 97,229.5C 95.9443,241.625 96.4443,253.625 98.5,265.5C 98.1706,268.228 98.8372,270.562 100.5,272.5C 101.619,275.843 102.952,279.177 104.5,282.5C 105.438,283.553 106.605,284.22 108,284.5C 111.214,280.559 113.88,276.226 116,271.5C 120.435,266.708 125.602,263.042 131.5,260.5C 131.631,261.239 131.464,261.906 131,262.5C 127.633,264.405 124.8,266.905 122.5,270C 122.645,270.772 122.978,271.439 123.5,272C 118.977,276.55 116.81,282.05 117,288.5C 115.833,290.333 114.333,291.833 112.5,293C 108.661,293.145 104.661,293.145 100.5,293C 98.5,292.333 97.1667,291 96.5,289C 94.8659,288.506 93.1992,288.34 91.5,288.5C 91.4924,282.792 91.9924,282.459 93,287.5C 93.3034,285.112 94.1367,282.945 95.5,281C 93.9588,279.421 92.7922,277.587 92,275.5C 91.6667,276.167 91.3333,276.833 91,277.5C 90.5291,275.754 89.8624,274.087 89,272.5C 87.6632,276.026 87.1632,279.692 87.5,283.5C 88.5,283.5 89.5,283.5 90.5,283.5C 90.6691,288.041 90.0025,288.374 88.5,284.5C 86.9975,288.374 86.3309,288.041 86.5,283.5C 82.8455,283.058 79.1788,282.724 75.5,282.5C 75.6655,278.486 75.4988,274.486 75,270.5C 74.2588,269.359 73.4255,269.359 72.5,270.5C 70.7894,279.223 71.456,287.723 74.5,296C 74,297.5 73.5,299 73,300.5C 72.3457,299.304 71.8457,299.304 71.5,300.5C 72.0412,302.535 72.7078,304.535 73.5,306.5C 73.7486,305.418 73.9152,304.085 74,302.5C 74.414,302.043 74.914,301.709 75.5,301.5C 76.0781,304.369 77.0781,307.035 78.5,309.5C 77.8333,310.833 77.1667,312.167 76.5,313.5C 78.7433,315.593 79.0766,317.926 77.5,320.5C 77.1667,320.5 76.8333,320.5 76.5,320.5C 72.7409,310.887 69.4076,301.22 66.5,291.5C 66.5905,288.848 65.9238,286.515 64.5,284.5C 63.4132,279.567 62.7466,274.567 62.5,269.5C 61.746,264.537 61.4126,259.537 61.5,254.5C 61.5956,249.368 61.7623,244.035 62,238.5C 65.2666,251.849 66.1,251.515 64.5,237.5C 64.7813,231.124 65.448,224.79 66.5,218.5C 70.0087,210.309 72.6753,201.809 74.5,193C 71.2091,190.668 70.7091,187.835 73,184.5C 74.2515,186.001 75.2515,187.668 76,189.5C 76.0368,185.911 76.8701,182.578 78.5,179.5C 77.3887,178.389 76.722,177.055 76.5,175.5C 78.29,169.287 81.1233,163.62 85,158.5C 86.6077,155.379 87.4411,152.046 87.5,148.5C 89.8458,145.129 92.1792,141.796 94.5,138.5C 93.666,141.681 92.666,144.848 91.5,148C 92.6202,151.621 94.9536,154.121 98.5,155.5C 100.966,155.35 103.632,155.017 106.5,154.5C 106.752,150.457 107.085,146.457 107.5,142.5C 109.199,142.66 110.866,142.494 112.5,142C 112.737,137.597 115.07,135.43 119.5,135.5C 119.838,132.843 119.171,130.51 117.5,128.5C 122.519,125.294 127.519,122.961 132.5,121.5C 134.466,116.039 135.466,110.372 135.5,104.5C 133.131,104.149 130.797,103.982 128.5,104C 118.504,112.129 109.504,121.295 101.5,131.5C 100.675,132.386 99.675,132.719 98.5,132.5C 102.489,127.179 106.822,122.179 111.5,117.5C 118.508,110.492 125.842,103.826 133.5,97.5C 134.167,97.1667 134.833,96.8333 135.5,96.5C 138.009,95.0787 140.343,93.4121 142.5,91.5 Z"/></g>
<g><path style="opacity:1" fill="#fefdfc" d="M 292.5,115.5 C 293.847,116.171 295.014,116.171 296,115.5C 296.645,116.646 297.478,117.646 298.5,118.5C 296.667,119.968 296.334,121.635 297.5,123.5C 298.424,121.61 299.757,120.11 301.5,119C 307.687,118.02 308.02,119.187 302.5,122.5C 301.754,123.736 301.421,125.07 301.5,126.5C 300.448,126.351 299.448,126.517 298.5,127C 299.756,127.417 300.423,128.25 300.5,129.5C 294.106,137.104 290.106,145.771 288.5,155.5C 287.667,244.666 287.167,333.999 287,423.5C 286.08,425.314 284.58,426.314 282.5,426.5C 279.289,424.828 277.122,425.828 276,429.5C 275.626,427.509 274.793,425.842 273.5,424.5C 272.336,333.903 272.17,243.237 273,152.5C 273.737,148.13 274.57,143.796 275.5,139.5C 277.293,134.581 279.626,129.914 282.5,125.5C 285.473,121.86 288.806,118.527 292.5,115.5 Z"/></g>
<g><path style="opacity:1" fill="#c42c21" d="M 399.5,218.5 C 396.696,214.846 394.03,211.013 391.5,207C 390.167,206.333 388.833,206.333 387.5,207C 383.361,212.112 381.027,217.945 380.5,224.5C 379.02,230.769 378.353,237.269 378.5,244C 378.353,250.731 379.02,257.231 380.5,263.5C 380.537,270.083 382.371,276.083 386,281.5C 388,284.167 390,284.167 392,281.5C 399.28,265.79 411.447,258.124 428.5,258.5C 426.85,267.773 425.517,277.106 424.5,286.5C 421.382,296.522 418.048,306.522 414.5,316.5C 401.533,346.136 382.2,370.803 356.5,390.5C 356.414,389.504 356.748,388.671 357.5,388C 352.652,387.338 350.318,384.838 350.5,380.5C 351.216,381.311 352.05,381.978 353,382.5C 354.657,381.516 356.323,380.516 358,379.5C 358.795,377.099 359.962,374.932 361.5,373C 360.207,372.51 358.873,372.343 357.5,372.5C 357.543,369.133 357.21,365.799 356.5,362.5C 355.227,357.566 353.893,353.399 352.5,350C 353.079,347.806 353.746,345.64 354.5,343.5C 352.471,334.824 353.137,326.324 356.5,318C 355.729,308.189 355.229,298.356 355,288.5C 353.296,285.161 352.463,281.161 352.5,276.5C 353.085,258.321 353.419,240.154 353.5,222C 351.268,212.678 350.934,203.178 352.5,193.5C 353.308,195.423 353.808,197.423 354,199.5C 354.14,196.957 354.806,194.623 356,192.5C 356.501,176.983 357.334,161.483 358.5,146C 358.735,139.193 358.069,132.527 356.5,126C 357.895,123.321 358.561,120.488 358.5,117.5C 360.199,117.34 361.866,117.506 363.5,118C 362.594,119.699 362.261,121.533 362.5,123.5C 364.903,123.393 366.736,124.393 368,126.5C 368.984,124.205 369.817,124.539 370.5,127.5C 368.861,130.04 369.194,132.207 371.5,134C 369.099,134.805 369.266,135.638 372,136.5C 372.137,142.178 373.804,142.845 377,138.5C 378.855,141.576 379.688,144.909 379.5,148.5C 380.5,148.5 381.5,148.5 382.5,148.5C 382.5,146.833 382.5,145.167 382.5,143.5C 383.833,143.5 385.167,143.5 386.5,143.5C 386.183,146.572 386.516,149.572 387.5,152.5C 389.111,153.32 389.778,154.654 389.5,156.5C 388.5,156.5 387.5,156.5 386.5,156.5C 386.709,162.261 387.542,162.594 389,157.5C 389.882,160.789 390.548,164.123 391,167.5C 391.75,168.126 392.584,168.626 393.5,169C 392.54,172.73 392.207,176.563 392.5,180.5C 394.167,180.5 395.833,180.5 397.5,180.5C 397.5,184.833 397.5,189.167 397.5,193.5C 390.232,193.028 382.899,193.028 375.5,193.5C 375.5,194.5 375.5,195.5 375.5,196.5C 379.5,196.5 383.5,196.5 387.5,196.5C 387.33,197.822 387.663,198.989 388.5,200C 390.493,199.768 392.326,199.935 394,200.5C 394.167,200.833 394.333,201.167 394.5,201.5C 390.625,202.486 390.625,203.653 394.5,205C 393.465,206.507 393.632,208.007 395,209.5C 395.667,210.833 396.333,210.833 397,209.5C 397.401,212.699 398.234,215.699 399.5,218.5 Z"/></g>
<g><path style="opacity:1" fill="#b82b21" d="M 363.5,104.5 C 374.916,113.248 384.583,123.581 392.5,135.5C 391.761,135.631 391.094,135.464 390.5,135C 388.392,132.105 386.059,129.439 383.5,127C 382.552,126.517 381.552,126.351 380.5,126.5C 380.343,120.053 378.01,119.053 373.5,123.5C 372.692,123.192 372.025,122.692 371.5,122C 372.177,119.463 371.177,117.463 368.5,116C 369.5,115.167 370.5,114.333 371.5,113.5C 368.074,111.08 365.408,108.08 363.5,104.5 Z"/></g>
<g><path style="opacity:1" fill="#b32f25" d="M 419.5,112.5 C 421.836,114.004 423.669,116.004 425,118.5C 429.42,125.404 433.587,132.404 437.5,139.5C 435.871,138.375 434.371,137.041 433,135.5C 432.667,135.833 432.333,136.167 432,136.5C 431.648,134.753 431.148,133.086 430.5,131.5C 427.086,125.003 423.419,118.67 419.5,112.5 Z"/></g>
<g><path style="opacity:1" fill="#cf2d20" d="M 397.5,87.5 C 406.316,94.6416 413.649,102.975 419.5,112.5C 423.419,118.67 427.086,125.003 430.5,131.5C 428.926,131.063 427.759,130.063 427,128.5C 426.833,128.833 426.667,129.167 426.5,129.5C 428.319,132.648 429.652,135.981 430.5,139.5C 429.5,139.5 428.5,139.5 427.5,139.5C 427.269,136.1 425.436,134.1 422,133.5C 420.883,134.949 420.216,136.616 420,138.5C 418.477,136.431 417.643,134.097 417.5,131.5C 418.552,131.649 419.552,131.483 420.5,131C 413.79,128.746 411.457,124.246 413.5,117.5C 405.848,109.348 398.015,101.348 390,93.5C 388.441,91.7834 387.608,89.7834 387.5,87.5C 383.067,87.0723 380.067,84.739 378.5,80.5C 376.955,79.5481 375.288,79.2148 373.5,79.5C 373.85,75.5262 372.183,72.8596 368.5,71.5C 365.766,69.1787 365.932,67.1787 369,65.5C 371.906,68.0373 375.073,70.204 378.5,72C 376.842,72.7253 376.342,73.892 377,75.5C 378.054,73.2464 379.554,72.913 381.5,74.5C 385.921,79.918 391.255,84.2513 397.5,87.5 Z"/></g>
<g><path style="opacity:1" fill="#c22920" d="M 165.5,115.5 C 165.833,115.5 166.167,115.5 166.5,115.5C 170.626,117.315 174.626,119.315 178.5,121.5C 176.046,121.679 173.879,121.013 172,119.5C 170.739,119.759 169.739,120.426 169,121.5C 168.55,118.894 167.05,117.561 164.5,117.5C 164.078,121.722 164.745,125.722 166.5,129.5C 167.541,127.009 168.374,127.009 169,129.5C 169.667,219.167 169.667,308.833 169,398.5C 167.667,397.167 166.333,397.167 165,398.5C 164.333,401.833 164.333,405.167 165,408.5C 166.714,409.925 168.047,409.592 169,407.5C 169.165,410.993 170.998,412.826 174.5,413C 173.944,413.383 173.611,413.883 173.5,414.5C 169.874,412.63 166.208,410.963 162.5,409.5C 162.5,408.167 162.5,406.833 162.5,405.5C 162.838,308.79 163.838,212.123 165.5,115.5 Z"/></g>
<g><path style="opacity:1" fill="#fdf4ec" d="M 196.5,114.5 C 204.402,121.3 210.068,129.633 213.5,139.5C 214.638,144.091 215.471,148.757 216,153.5C 216.5,230.833 216.667,308.166 216.5,385.5C 215.667,310.668 215.167,235.668 215,160.5C 214.226,156.853 213.559,153.186 213,149.5C 211.491,148.91 209.991,148.244 208.5,147.5C 209.981,146.52 211.315,145.353 212.5,144C 211.708,141.664 210.375,141.164 208.5,142.5C 207.833,144.833 207.167,147.167 206.5,149.5C 205.201,148.91 204.368,147.91 204,146.5C 203.8,142.247 203.3,138.08 202.5,134C 203.357,133.311 204.023,132.478 204.5,131.5C 203.926,128.823 203.259,126.157 202.5,123.5C 199.929,122.272 198.595,120.272 198.5,117.5C 197.448,117.649 196.448,117.483 195.5,117C 196.252,116.329 196.586,115.496 196.5,114.5 Z"/></g>
<g><path style="opacity:1" fill="#c92c22" d="M 272.5,63.5 C 276.906,63.748 281.24,64.4147 285.5,65.5C 293.212,67.3497 300.879,69.683 308.5,72.5C 312.97,74.3798 317.303,76.5464 321.5,79C 324.075,81.2138 325.408,84.0471 325.5,87.5C 323.124,93.5397 318.791,97.5397 312.5,99.5C 309.753,99.8134 307.086,99.48 304.5,98.5C 305.347,97.1552 306.513,96.1552 308,95.5C 308.456,94.2559 307.956,93.4226 306.5,93C 307.833,92.3333 308.833,91.3333 309.5,90C 307.022,87.7866 305.355,85.4532 304.5,83C 301.441,82.9423 299.108,81.609 297.5,79C 295.529,78.9856 293.529,79.3189 291.5,80C 291.996,81.9964 292.996,83.6631 294.5,85C 291.493,85.3013 288.493,85.1346 285.5,84.5C 285.739,82.5328 285.406,80.6995 284.5,79C 286.059,78.0201 287.726,77.1867 289.5,76.5C 284.208,75.5052 278.875,75.1718 273.5,75.5C 273.336,81.1667 273.003,81.5 272.5,76.5C 268.64,77.6441 264.64,78.3107 260.5,78.5C 260.5,77.5 260.5,76.5 260.5,75.5C 258.533,75.7394 256.699,75.4061 255,74.5C 253.981,75.6872 252.814,76.6872 251.5,77.5C 250.575,76.3595 249.741,76.3595 249,77.5C 248.252,75.6675 247.252,74.0009 246,72.5C 238.829,73.4403 231.496,73.4403 224,72.5C 222.426,73.9842 221.093,75.6508 220,77.5C 217,77.1667 214,76.8333 211,76.5C 210.308,77.0253 209.808,77.6919 209.5,78.5C 205.555,79.4909 201.555,79.8242 197.5,79.5C 197.789,83.1064 197.456,86.6064 196.5,90C 205.416,90.5311 214.25,91.3644 223,92.5C 223.573,100.849 223.407,109.182 222.5,117.5C 224.167,117.5 225.833,117.5 227.5,117.5C 227.5,119.167 227.5,120.833 227.5,122.5C 221.512,121.816 219.845,124.15 222.5,129.5C 224.167,129.5 225.833,129.5 227.5,129.5C 227.334,133.514 227.501,137.514 228,141.5C 229.471,142.381 230.304,143.714 230.5,145.5C 229.833,147.5 229.167,149.5 228.5,151.5C 229.084,154.8 231.084,156.134 234.5,155.5C 234.833,182.841 234.5,210.175 233.5,237.5C 232.914,237.709 232.414,238.043 232,238.5C 232.1,266.972 231.934,295.472 231.5,324C 231.667,339.833 231.833,355.667 232,371.5C 232.414,371.957 232.914,372.291 233.5,372.5C 234.66,376.459 234.827,380.459 234,384.5C 233.25,385.126 232.416,385.626 231.5,386C 232.833,393.667 232.833,401.333 231.5,409C 233.5,409.667 234.833,411 235.5,413C 240.188,413.031 244.688,413.864 249,415.5C 250.605,414.899 251.938,413.899 253,412.5C 252.727,410.049 253.227,407.549 254.5,405C 253.775,400.898 252.775,396.898 251.5,393C 251.294,384.199 251.627,375.366 252.5,366.5C 251.385,362.088 250.718,357.588 250.5,353C 250.493,330.156 250.66,306.989 251,283.5C 252.659,273.739 252.159,264.072 249.5,254.5C 249.608,253.558 249.941,252.725 250.5,252C 246.844,249.647 246.678,247.147 250,244.5C 250.063,227.341 250.896,210.341 252.5,193.5C 252.622,186.875 251.956,180.375 250.5,174C 252.401,168.149 253.734,161.982 254.5,155.5C 256.747,154.626 259.08,154.292 261.5,154.5C 261.334,150.486 261.501,146.486 262,142.5C 263.772,141.01 263.939,139.343 262.5,137.5C 265.634,132.173 267.634,132.839 268.5,139.5C 268.547,141 267.881,142 266.5,142.5C 265.528,146.467 264.695,150.467 264,154.5C 262.606,214.161 262.273,273.828 263,333.5C 263.17,294.596 263.67,255.762 264.5,217C 264.683,214.107 264.349,211.107 263.5,208C 265.585,205.163 265.919,202.163 264.5,199C 265.159,184.563 265.826,170.063 266.5,155.5C 266.833,163.833 267.167,172.167 267.5,180.5C 265.947,211.541 266.281,242.541 268.5,273.5C 268.027,283.013 267.36,292.513 266.5,302C 267.779,342.108 267.779,382.275 266.5,422.5C 268.942,422.119 269.609,422.786 268.5,424.5C 253.849,425.766 239.183,426.766 224.5,427.5C 225.263,426.732 226.263,426.232 227.5,426C 224.905,425.774 222.405,425.274 220,424.5C 220.053,339.492 220.553,254.492 221.5,169.5C 220.668,164.837 219.834,160.17 219,155.5C 218.809,157.708 218.309,159.708 217.5,161.5C 218.07,153.695 216.737,146.362 213.5,139.5C 210.068,129.633 204.402,121.3 196.5,114.5C 190.665,108.668 183.998,104.002 176.5,100.5C 176.611,99.8826 176.944,99.3826 177.5,99C 174.611,98.1113 171.945,96.778 169.5,95C 164.001,90.5307 163.334,85.5307 167.5,80C 168.549,79.5078 169.549,79.6744 170.5,80.5C 172.846,77.0675 176.179,75.5675 180.5,76C 180.043,75.586 179.709,75.086 179.5,74.5C 183.142,73.4105 186.808,73.4105 190.5,74.5C 194.01,72.8243 197.51,71.1576 201,69.5C 202.18,70.6841 203.68,71.3507 205.5,71.5C 218.551,69.3019 230.884,67.3019 242.5,65.5C 242.5,64.5 242.5,63.5 242.5,62.5C 245.746,62.6021 248.58,63.6021 251,65.5C 257.328,64.2171 263.661,64.2171 270,65.5C 274.248,65.3966 274.414,64.8966 270.5,64C 271.094,63.5357 271.761,63.369 272.5,63.5 Z"/></g>
<g><path style="opacity:1" fill="#c52c22" d="M 322.5,115.5 C 323.496,115.414 324.329,115.748 325,116.5C 325.5,214.166 325.667,311.833 325.5,409.5C 318.815,413.01 311.815,415.676 304.5,417.5C 299.845,417.117 295.512,418.117 291.5,420.5C 291.165,336.163 290.165,252.163 288.5,168.5C 288.5,164.167 288.5,159.833 288.5,155.5C 290.106,145.771 294.106,137.104 300.5,129.5C 306.561,122.76 313.895,118.093 322.5,115.5 Z"/></g>
<g><path style="opacity:1" fill="#c42b20" d="M 181.5,123.5 C 184.167,125.833 186.833,128.167 189.5,130.5C 192.525,136.549 195.525,142.549 198.5,148.5C 199.15,150.435 199.483,152.435 199.5,154.5C 199.5,243.833 199.5,333.167 199.5,422.5C 197.5,422.167 195.5,421.833 193.5,421.5C 193.167,421.5 192.833,421.5 192.5,421.5C 189.746,420.054 186.746,419.054 183.5,418.5C 181.007,417.226 178.341,416.56 175.5,416.5C 175.167,415.833 174.833,415.167 174.5,414.5C 177.249,414.726 179.916,414.393 182.5,413.5C 183.478,413.977 184.311,414.643 185,415.5C 188.252,412.55 191.085,412.883 193.5,416.5C 194.167,416.167 194.833,415.833 195.5,415.5C 196.762,409.556 196.429,403.722 194.5,398C 191.118,397.176 187.784,397.343 184.5,398.5C 183.846,400.115 183.346,401.782 183,403.5C 181.867,405.211 180.367,405.711 178.5,405C 179.167,404.333 179.833,403.667 180.5,403C 178.919,402.293 177.419,401.46 176,400.5C 175.594,396.422 174.094,392.922 171.5,390C 171.213,377.762 171.546,365.429 172.5,353C 172.669,349.588 172.003,346.421 170.5,343.5C 172.058,339.564 172.725,335.397 172.5,331C 171.885,312.663 171.218,294.33 170.5,276C 171.788,255.826 171.788,235.659 170.5,215.5C 171.308,188.517 171.808,161.517 172,134.5C 172.333,135.833 172.667,137.167 173,138.5C 173.561,139.022 174.228,139.355 175,139.5C 177.085,137.348 179.585,135.848 182.5,135C 178.323,131.221 179.323,129.388 185.5,129.5C 183.722,127.736 182.389,125.736 181.5,123.5 Z"/></g>
<g><path style="opacity:1" fill="#b52c21" d="M 392.5,136.5 C 395.458,139.06 397.958,142.06 400,145.5C 404.046,151.598 407.546,157.931 410.5,164.5C 411.928,168.35 413.594,172.017 415.5,175.5C 417.508,181.512 419.508,187.512 421.5,193.5C 417.754,194.214 416.754,193.047 418.5,190C 417.289,186.948 416.455,183.781 416,180.5C 414.684,177.972 413.517,177.972 412.5,180.5C 412.094,174.023 409.76,168.356 405.5,163.5C 406.811,162.742 407.311,161.742 407,160.5C 404.772,158.275 402.939,155.775 401.5,153C 398.367,154.26 395.7,153.593 393.5,151C 395.421,150.64 397.088,149.806 398.5,148.5C 396.674,144.317 394.674,140.317 392.5,136.5 Z"/></g>
<g><path style="opacity:1" fill="#fcf9f8" d="M 135.5,96.5 C 134.833,96.8333 134.167,97.1667 133.5,97.5C 131.692,97.4914 130.025,97.9914 128.5,99C 124.991,102.246 121.325,105.246 117.5,108C 116.663,109.011 116.33,110.178 116.5,111.5C 113.043,111.96 111.377,113.96 111.5,117.5C 106.822,122.179 102.489,127.179 98.5,132.5C 96.7745,134.228 95.4411,136.228 94.5,138.5C 92.1792,141.796 89.8458,145.129 87.5,148.5C 78.569,162.791 71.9024,178.125 67.5,194.5C 66.0762,196.515 65.4095,198.848 65.5,201.5C 64.652,205.227 63.652,208.893 62.5,212.5C 60.2997,216.913 58.9663,221.747 58.5,227C 59.1349,237.974 59.8016,248.808 60.5,259.5C 60.1588,263.16 60.8255,266.493 62.5,269.5C 62.7466,274.567 63.4132,279.567 64.5,284.5C 64.4095,287.152 65.0762,289.485 66.5,291.5C 69.4076,301.22 72.7409,310.887 76.5,320.5C 76.0412,324.073 77.0412,327.073 79.5,329.5C 80.3298,335.284 82.9964,340.451 87.5,345C 85.9159,351.248 88.2492,353.748 94.5,352.5C 94.5,353.833 94.5,355.167 94.5,356.5C 95.9587,356.433 97.2921,356.766 98.5,357.5C 100.587,358.585 101.92,360.251 102.5,362.5C 102.802,367.467 105.136,371.134 109.5,373.5C 109.167,374.5 108.5,375.167 107.5,375.5C 104.904,373.133 101.904,372.3 98.5,373C 99.9047,374.269 101.571,374.769 103.5,374.5C 103.933,377.166 104.433,379.832 105,382.5C 105.671,383.252 106.504,383.586 107.5,383.5C 107.047,384.458 106.381,385.292 105.5,386C 106.464,387.725 107.131,389.559 107.5,391.5C 86.1873,371.502 69.854,348.168 58.5,321.5C 56.5349,314.941 54.2016,308.608 51.5,302.5C 51.1667,301.167 50.8333,299.833 50.5,298.5C 47.9373,289.016 46.2706,279.349 45.5,269.5C 44.7229,257.516 44.3895,245.516 44.5,233.5C 44.9157,228.507 45.2491,223.507 45.5,218.5C 46.2644,216.26 47.0977,213.927 48,211.5C 48.4459,205.007 49.2792,198.674 50.5,192.5C 52.6098,188.498 53.9431,184.165 54.5,179.5C 58.9481,164.938 65.2814,151.272 73.5,138.5C 80.7256,127.274 89.0589,116.941 98.5,107.5C 101.5,107.167 102.833,108.5 102.5,111.5C 103.675,111.719 104.675,111.386 105.5,110.5C 106.123,108.289 107.123,106.289 108.5,104.5C 112.903,103.843 113.57,102.01 110.5,99C 113.038,97.641 115.371,95.9744 117.5,94C 120.2,93.7468 122.867,93.7468 125.5,94C 128.167,93.3333 128.167,92.6667 125.5,92C 128.119,91.8485 130.453,91.0152 132.5,89.5C 131.444,88.9616 130.111,88.9616 128.5,89.5C 123.416,87.4259 123.749,85.4259 129.5,83.5C 132.408,84.5784 134.908,86.245 137,88.5C 137.312,91.3088 136.812,93.9755 135.5,96.5 Z"/></g>
<g><path style="opacity:1" fill="#f3c9c9" d="M 410.5,164.5 C 412.397,165.984 414.064,167.818 415.5,170C 414.862,171.707 414.862,173.54 415.5,175.5C 413.594,172.017 411.928,168.35 410.5,164.5 Z"/></g>
<g><path style="opacity:1" fill="#f4d7d2" d="M 458.5,192.5 C 456.453,186.007 454.786,179.34 453.5,172.5C 454.541,172.96 455.375,174.293 456,176.5C 457.03,181.814 457.863,187.147 458.5,192.5 Z"/></g>
<g><path style="opacity:1" fill="#ad1302" d="M 142.5,91.5 C 142.833,91.5 143.167,91.5 143.5,91.5C 144.499,137.997 144.832,184.664 144.5,231.5C 142.5,231.5 140.5,231.5 138.5,231.5C 139.919,230.549 141.585,230.216 143.5,230.5C 143.828,184.095 143.495,137.761 142.5,91.5 Z"/></g>
<g><path style="opacity:1" fill="#ab3b3c" d="M 322.5,115.5 C 323.568,114.566 324.901,114.232 326.5,114.5C 326.833,213.001 326.499,311.335 325.5,409.5C 325.667,311.833 325.5,214.166 325,116.5C 324.329,115.748 323.496,115.414 322.5,115.5 Z"/></g>
<g><path style="opacity:1" fill="#eaaba7" d="M 54.5,179.5 C 53.9431,184.165 52.6098,188.498 50.5,192.5C 51.0569,187.835 52.3902,183.502 54.5,179.5 Z"/></g>
<g><path style="opacity:1" fill="#c52a1e" d="M 349.5,51.5 C 367.504,60.8384 383.504,72.8384 397.5,87.5C 391.255,84.2513 385.921,79.918 381.5,74.5C 379.554,72.913 378.054,73.2464 377,75.5C 376.342,73.892 376.842,72.7253 378.5,72C 375.073,70.204 371.906,68.0373 369,65.5C 365.932,67.1787 365.766,69.1787 368.5,71.5C 372.183,72.8596 373.85,75.5262 373.5,79.5C 375.288,79.2148 376.955,79.5481 378.5,80.5C 380.067,84.739 383.067,87.0723 387.5,87.5C 387.608,89.7834 388.441,91.7834 390,93.5C 398.015,101.348 405.848,109.348 413.5,117.5C 411.457,124.246 413.79,128.746 420.5,131C 419.552,131.483 418.552,131.649 417.5,131.5C 417.643,134.097 418.477,136.431 420,138.5C 420.216,136.616 420.883,134.949 422,133.5C 425.436,134.1 427.269,136.1 427.5,139.5C 428.5,139.5 429.5,139.5 430.5,139.5C 429.652,135.981 428.319,132.648 426.5,129.5C 426.667,129.167 426.833,128.833 427,128.5C 427.759,130.063 428.926,131.063 430.5,131.5C 431.148,133.086 431.648,134.753 432,136.5C 432.333,136.167 432.667,135.833 433,135.5C 434.371,137.041 435.871,138.375 437.5,139.5C 439.644,142.122 440.977,145.122 441.5,148.5C 441.792,152.207 442.792,155.707 444.5,159C 443.424,160.726 443.257,162.559 444,164.5C 444.986,168.033 446.152,171.533 447.5,175C 446.5,175.833 445.5,176.667 444.5,177.5C 445.311,178.216 445.978,179.05 446.5,180C 447.834,185.002 449.168,190.002 450.5,195C 450.067,196.928 449.4,198.761 448.5,200.5C 448.833,201.167 449.167,201.833 449.5,202.5C 450.883,197.437 451.883,197.77 452.5,203.5C 452.771,205.921 452.105,206.587 450.5,205.5C 449.692,207.423 449.192,209.423 449,211.5C 446.09,203.258 444.09,194.925 443,186.5C 441.768,182.621 439.934,181.955 437.5,184.5C 437.011,183.005 436.345,181.671 435.5,180.5C 428.643,159.45 418.643,140.117 405.5,122.5C 405.123,120.742 404.456,119.075 403.5,117.5C 400.6,115.111 398.767,112.111 398,108.5C 396.413,109.727 395.079,109.394 394,107.5C 393.667,105.5 393.333,103.5 393,101.5C 390.219,99.4797 387.386,98.3131 384.5,98C 385.337,96.9887 385.67,95.8221 385.5,94.5C 382.078,95.8544 380.078,94.5211 379.5,90.5C 380.552,90.6495 381.552,90.4828 382.5,90C 380.695,89.028 379.028,87.8613 377.5,86.5C 376.295,88.1376 374.962,88.4709 373.5,87.5C 372.904,86.2839 372.737,84.9506 373,83.5C 371.556,85.1554 369.722,85.822 367.5,85.5C 352.379,74.4793 336.379,65.1459 319.5,57.5C 322.267,55.1291 325.6,53.9625 329.5,54C 329.295,52.3237 330.128,50.8237 332,49.5C 333.204,50.8586 334.704,51.8586 336.5,52.5C 334.947,53.439 333.613,54.6057 332.5,56C 332.645,56.772 332.978,57.4387 333.5,58C 339.958,59.4078 346.291,61.0745 352.5,63C 355.379,63.8736 358.045,63.5403 360.5,62C 358.325,57.1319 355.158,55.9652 351,58.5C 348.977,56.9873 349.144,55.6539 351.5,54.5C 350.388,53.7348 349.721,52.7348 349.5,51.5 Z"/></g>
<g><path style="opacity:1" fill="#b92a1f" d="M 87.5,148.5 C 87.4411,152.046 86.6077,155.379 85,158.5C 81.1233,163.62 78.29,169.287 76.5,175.5C 76.722,177.055 77.3887,178.389 78.5,179.5C 76.8701,182.578 76.0368,185.911 76,189.5C 75.2515,187.668 74.2515,186.001 73,184.5C 70.7091,187.835 71.2091,190.668 74.5,193C 72.6753,201.809 70.0087,210.309 66.5,218.5C 65.448,224.79 64.7813,231.124 64.5,237.5C 66.1,251.515 65.2666,251.849 62,238.5C 61.7623,244.035 61.5956,249.368 61.5,254.5C 61.5,253.833 61.1667,253.5 60.5,253.5C 60.627,239.802 61.2937,226.136 62.5,212.5C 63.652,208.893 64.652,205.227 65.5,201.5C 66.9238,199.485 67.5905,197.152 67.5,194.5C 71.9024,178.125 78.569,162.791 87.5,148.5 Z"/></g>
<g><path style="opacity:1" fill="#e8b4b4" d="M 30.5,193.5 C 30.7062,196.495 30.0395,199.162 28.5,201.5C 28.5651,198.572 29.2318,195.905 30.5,193.5 Z"/></g>
<g><path style="opacity:1" fill="#be2d25" d="M 354.5,391.5 C 352.082,394.547 349.082,396.88 345.5,398.5C 344.508,398.672 343.842,398.338 343.5,397.5C 344.333,298.668 344.833,199.668 345,100.5C 345.167,198.168 345.667,295.835 346.5,393.5C 349.276,393.054 351.776,392.054 354,390.5C 354.399,390.728 354.565,391.062 354.5,391.5 Z"/></g>
<g><path style="opacity:1" fill="#c66b6a" d="M 67.5,194.5 C 67.5905,197.152 66.9238,199.485 65.5,201.5C 65.4095,198.848 66.0762,196.515 67.5,194.5 Z"/></g>
<g><path style="opacity:1" fill="#f5c9c3" d="M 435.5,180.5 C 436.345,181.671 437.011,183.005 437.5,184.5C 439.148,190.426 440.481,196.426 441.5,202.5C 440.504,202.586 439.671,202.252 439,201.5C 438.435,194.381 437.268,187.381 435.5,180.5 Z"/></g>
<g><path style="opacity:1" fill="#d47272" d="M 143.5,91.5 C 143.56,90.9569 143.893,90.6236 144.5,90.5C 145.5,137.495 145.833,184.495 145.5,231.5C 140.261,233.028 135.261,232.361 130.5,229.5C 133.341,229.56 136.007,230.226 138.5,231.5C 140.5,231.5 142.5,231.5 144.5,231.5C 144.832,184.664 144.499,137.997 143.5,91.5 Z"/></g>
<g><path style="opacity:1" fill="#e7aaa4" d="M 344.5,90.5 C 343.501,192.665 343.167,294.999 343.5,397.5C 343.842,398.338 344.508,398.672 345.5,398.5C 344.791,399.404 343.791,399.737 342.5,399.5C 342.167,296.165 342.5,192.831 343.5,89.5C 344.107,89.6236 344.44,89.9569 344.5,90.5 Z"/></g>
<g><path style="opacity:1" fill="#ba4137" d="M 421.5,196.5 C 424.668,201.963 426.334,207.963 426.5,214.5C 425.71,213.391 425.21,212.058 425,210.5C 424.667,211.167 424.333,211.833 424,212.5C 422.677,207.247 421.843,201.914 421.5,196.5 Z"/></g>
<g><path style="opacity:1" fill="#f6cac4" d="M 50.5,192.5 C 49.2792,198.674 48.4459,205.007 48,211.5C 47.0977,213.927 46.2644,216.26 45.5,218.5C 45.5865,214.143 45.9198,209.81 46.5,205.5C 47.4511,204.081 47.7845,202.415 47.5,200.5C 48.7487,197.913 49.7487,195.246 50.5,192.5 Z"/></g>
<g><path style="opacity:1" fill="#fad4cf" d="M 111.5,210.5 C 113.588,212.336 114.921,214.669 115.5,217.5C 112.013,216.517 110.68,214.183 111.5,210.5 Z"/></g>
<g><path style="opacity:1" fill="#ebb6b5" d="M 461.5,206.5 C 463.177,210.545 463.844,214.878 463.5,219.5C 462.291,215.382 461.624,211.049 461.5,206.5 Z"/></g>
<g><path style="opacity:1" fill="#f8dcd6" d="M 105.5,208.5 C 104.377,211.375 103.544,214.375 103,217.5C 101.022,219.972 99.522,222.639 98.5,225.5C 98.8839,221.414 99.7173,217.414 101,213.5C 101.996,211.34 103.496,209.673 105.5,208.5 Z"/></g>
<g><path style="opacity:1" fill="#bc2a1e" d="M 73.5,138.5 C 65.2814,151.272 58.9481,164.938 54.5,179.5C 52.3902,183.502 51.0569,187.835 50.5,192.5C 49.7487,195.246 48.7487,197.913 47.5,200.5C 46.5266,200.013 45.5266,199.513 44.5,199C 45.1298,195.871 45.7964,192.704 46.5,189.5C 47.2508,190.376 47.7508,191.376 48,192.5C 51.7624,184.56 50.4291,177.56 44,171.5C 42.5599,177.961 41.5599,177.961 41,171.5C 37.8337,174.052 37.667,176.886 40.5,180C 37.9641,184.192 37.9641,188.358 40.5,192.5C 38.6738,201.23 36.0072,209.73 32.5,218C 33.8333,231.667 33.8333,245.333 32.5,259C 33.1085,268.859 34.1085,278.692 35.5,288.5C 35.4677,290.759 35.1344,292.925 34.5,295C 37.8954,300.578 39.2287,306.578 38.5,313C 39.0793,316.564 39.9127,320.064 41,323.5C 41.7408,320.05 43.7408,317.717 47,316.5C 46.7343,311.187 48.2343,306.521 51.5,302.5C 54.2016,308.608 56.5349,314.941 58.5,321.5C 57.1301,321.144 56.1301,320.31 55.5,319C 53.9876,315.122 52.4876,311.289 51,307.5C 50.6667,310.833 50.3333,314.167 50,317.5C 47.3726,320.084 44.8726,322.751 42.5,325.5C 44.4517,327.741 46.6184,329.741 49,331.5C 50.5373,335.579 52.3707,339.579 54.5,343.5C 55.376,344.251 56.376,344.751 57.5,345C 55.6734,345.899 54.34,347.233 53.5,349C 54.4235,350.811 55.2569,350.645 56,348.5C 56.3095,349.766 56.8095,350.933 57.5,352C 56.8333,352.333 56.1667,352.667 55.5,353C 57.8856,353.284 58.5523,354.284 57.5,356C 59.3008,356.317 59.6341,356.984 58.5,358C 61.234,361.057 62.9006,364.557 63.5,368.5C 59.1077,362.772 55.1077,356.772 51.5,350.5C 48.4975,343.829 45.4975,337.162 42.5,330.5C 40.3423,324.676 38.0089,319.01 35.5,313.5C 35.2766,309.838 34.2766,306.505 32.5,303.5C 30.9519,294.75 29.1186,286.083 27,277.5C 25.9477,270.872 25.4477,264.206 25.5,257.5C 25.2257,242.118 25.8924,226.785 27.5,211.5C 27.6159,208.14 27.9492,204.807 28.5,201.5C 30.0395,199.162 30.7062,196.495 30.5,193.5C 33.1766,184.996 35.6766,176.329 38,167.5C 41.4703,160.882 44.637,154.215 47.5,147.5C 47.2011,149.604 47.5344,151.604 48.5,153.5C 52.4473,156.716 52.2806,159.716 48,162.5C 47.3333,165.833 47.3333,169.167 48,172.5C 49.3333,173.167 50.3333,174.167 51,175.5C 51.1816,172.774 51.6816,170.107 52.5,167.5C 54.9784,165.829 56.4784,163.496 57,160.5C 57.6667,161.833 58.3333,161.833 59,160.5C 58.5014,157.978 58.6681,155.478 59.5,153C 60.1374,151.287 61.1374,151.121 62.5,152.5C 65.5054,149.824 66.8388,146.491 66.5,142.5C 67.552,142.649 68.552,142.483 69.5,142C 70.1029,139.929 71.4362,138.762 73.5,138.5 Z"/></g>
<g><path style="opacity:1" fill="#fadad5" d="M 62.5,212.5 C 61.2937,226.136 60.627,239.802 60.5,253.5C 60.5,255.5 60.5,257.5 60.5,259.5C 59.8016,248.808 59.1349,237.974 58.5,227C 58.9663,221.747 60.2997,216.913 62.5,212.5 Z"/></g>
<g><path style="opacity:1" fill="#d6918f" d="M 27.5,211.5 C 25.8924,226.785 25.2257,242.118 25.5,257.5C 24.3412,247.008 24.1745,236.341 25,225.5C 25.222,220.588 26.0554,215.921 27.5,211.5 Z"/></g>
<g><path style="opacity:1" fill="#d4817e" d="M 443.5,212.5 C 444.889,217.269 445.556,222.269 445.5,227.5C 443.855,222.766 443.189,217.766 443.5,212.5 Z"/></g>
<g><path style="opacity:1" fill="#bb291c" d="M 441.5,148.5 C 446.442,155.968 450.442,163.968 453.5,172.5C 454.786,179.34 456.453,186.007 458.5,192.5C 459.791,197.204 460.791,201.871 461.5,206.5C 461.624,211.049 462.291,215.382 463.5,219.5C 464.374,232.144 464.708,244.811 464.5,257.5C 463.56,265.035 462.56,272.701 461.5,280.5C 461.5,280.833 461.5,281.167 461.5,281.5C 461.167,281.5 460.833,281.5 460.5,281.5C 457.57,276.054 458.07,271.054 462,266.5C 462.184,257.12 461.684,247.787 460.5,238.5C 461.292,235.874 461.959,233.208 462.5,230.5C 462.444,229.263 461.944,228.263 461,227.5C 460.781,228.938 460.281,230.271 459.5,231.5C 458.963,225.023 458.129,218.689 457,212.5C 456.667,217.5 456.333,222.5 456,227.5C 454.216,221.715 453.216,215.715 453,209.5C 452.667,209.833 452.333,210.167 452,210.5C 451.39,215.489 450.89,220.489 450.5,225.5C 450.64,228.043 451.306,230.377 452.5,232.5C 452.013,233.446 451.68,234.446 451.5,235.5C 452.2,243.825 452.866,252.158 453.5,260.5C 452.775,265.186 451.941,269.853 451,274.5C 450.784,272.616 450.117,270.949 449,269.5C 447.952,277.687 446.119,285.521 443.5,293C 444.759,297.238 443.926,301.071 441,304.5C 440.667,307.167 440.333,309.833 440,312.5C 438.869,311.396 438.035,311.729 437.5,313.5C 439.996,316.193 439.33,317.859 435.5,318.5C 435.723,320.342 436.057,322.175 436.5,324C 436.33,326.527 435.33,327.027 433.5,325.5C 432.614,326.325 432.281,327.325 432.5,328.5C 431.5,328.5 430.5,328.5 429.5,328.5C 430.572,332.165 430.405,335.831 429,339.5C 427.887,340.711 426.72,340.711 425.5,339.5C 424.033,342.786 421.866,345.453 419,347.5C 417.343,350.089 417.009,352.756 418,355.5C 417.15,356.424 416.15,356.424 415,355.5C 413.649,357.018 412.149,358.351 410.5,359.5C 413.09,355.321 415.423,350.988 417.5,346.5C 420.231,341.858 423.065,337.192 426,332.5C 431.267,320.417 435.767,308.083 439.5,295.5C 440.768,293.095 441.435,290.428 441.5,287.5C 442.585,283.24 443.252,278.906 443.5,274.5C 445.082,271.124 445.749,267.458 445.5,263.5C 446.739,251.506 446.739,239.506 445.5,227.5C 445.556,222.269 444.889,217.269 443.5,212.5C 443.212,209.061 442.546,205.728 441.5,202.5C 440.481,196.426 439.148,190.426 437.5,184.5C 439.934,181.955 441.768,182.621 443,186.5C 444.09,194.925 446.09,203.258 449,211.5C 449.192,209.423 449.692,207.423 450.5,205.5C 452.105,206.587 452.771,205.921 452.5,203.5C 451.883,197.77 450.883,197.437 449.5,202.5C 449.167,201.833 448.833,201.167 448.5,200.5C 449.4,198.761 450.067,196.928 450.5,195C 449.168,190.002 447.834,185.002 446.5,180C 445.978,179.05 445.311,178.216 444.5,177.5C 445.5,176.667 446.5,175.833 447.5,175C 446.152,171.533 444.986,168.033 444,164.5C 443.257,162.559 443.424,160.726 444.5,159C 442.792,155.707 441.792,152.207 441.5,148.5 Z"/></g>
<g><path style="opacity:1" fill="#d89595" d="M 45.5,218.5 C 45.2491,223.507 44.9157,228.507 44.5,233.5C 44.1667,233.5 43.8333,233.5 43.5,233.5C 43.4443,228.269 44.111,223.269 45.5,218.5 Z"/></g>
<g><path style="opacity:1" fill="#ebbab5" d="M 380.5,224.5 C 380.5,237.5 380.5,250.5 380.5,263.5C 379.02,257.231 378.353,250.731 378.5,244C 378.353,237.269 379.02,230.769 380.5,224.5 Z"/></g>
<g><path style="opacity:1" fill="#d58287" d="M 199.5,154.5 C 200.499,243.998 200.833,333.665 200.5,423.5C 198.473,423.662 196.473,423.495 194.5,423C 193.944,422.617 193.611,422.117 193.5,421.5C 195.5,421.833 197.5,422.167 199.5,422.5C 199.5,333.167 199.5,243.833 199.5,154.5 Z"/></g>
<g><path style="opacity:1" fill="#ba2b1e" d="M 46.5,205.5 C 45.9198,209.81 45.5865,214.143 45.5,218.5C 44.111,223.269 43.4443,228.269 43.5,233.5C 43.3335,242.839 43.5002,252.173 44,261.5C 44.1829,264.365 44.6829,267.031 45.5,269.5C 46.2706,279.349 47.9373,289.016 50.5,298.5C 49.5041,298.414 48.6708,298.748 48,299.5C 47.7837,301.384 47.117,303.051 46,304.5C 45.7595,300.61 46.2595,296.777 47.5,293C 47.4907,291.596 46.9907,290.43 46,289.5C 44.9086,292.755 43.9086,296.089 43,299.5C 43.6055,288.931 42.1055,278.598 38.5,268.5C 39.7422,258.67 40.5755,248.67 41,238.5C 41.3333,242.5 41.6667,246.5 42,250.5C 42.1667,248.333 42.3333,246.167 42.5,244C 42.4188,241.375 41.7522,239.041 40.5,237C 42.4867,225.633 43.6534,214.133 44,202.5C 44.3333,204.5 44.6667,206.5 45,208.5C 45.2321,207.263 45.7321,206.263 46.5,205.5 Z"/></g>
<g><path style="opacity:1" fill="#e38685" d="M 161.5,114.5 C 163.415,114.216 165.081,114.549 166.5,115.5C 166.167,115.5 165.833,115.5 165.5,115.5C 164.5,115.5 163.5,115.5 162.5,115.5C 162.5,212.167 162.5,308.833 162.5,405.5C 162.5,406.833 162.5,408.167 162.5,409.5C 161.501,311.335 161.167,213.001 161.5,114.5 Z"/></g>
<g><path style="opacity:1" fill="#e3928a" d="M 60.5,253.5 C 61.1667,253.5 61.5,253.833 61.5,254.5C 61.4126,259.537 61.746,264.537 62.5,269.5C 60.8255,266.493 60.1588,263.16 60.5,259.5C 60.5,257.5 60.5,255.5 60.5,253.5 Z"/></g>
<g><path style="opacity:1" fill="#f0bfc0" d="M 43.5,233.5 C 43.8333,233.5 44.1667,233.5 44.5,233.5C 44.3895,245.516 44.7229,257.516 45.5,269.5C 44.6829,267.031 44.1829,264.365 44,261.5C 43.5002,252.173 43.3335,242.839 43.5,233.5 Z"/></g>
<g><path style="opacity:1" fill="#c72c21" d="M 139.5,258.5 C 140.568,259.434 141.901,259.768 143.5,259.5C 143.168,305.336 143.501,351.003 144.5,396.5C 144.158,397.338 143.492,397.672 142.5,397.5C 141.609,396.89 140.609,396.557 139.5,396.5C 137.192,394.529 134.858,392.529 132.5,390.5C 131.797,388.284 130.464,386.451 128.5,385C 129.554,383.612 129.72,382.112 129,380.5C 127.867,382.211 126.367,382.711 124.5,382C 121.264,379.219 118.264,376.219 115.5,373C 114.255,372.209 112.922,371.709 111.5,371.5C 108.728,368.306 105.728,365.306 102.5,362.5C 101.92,360.251 100.587,358.585 98.5,357.5C 93.5828,349.401 88.4162,341.401 83,333.5C 81.0717,329.217 79.2383,324.884 77.5,320.5C 79.0766,317.926 78.7433,315.593 76.5,313.5C 77.1667,312.167 77.8333,310.833 78.5,309.5C 77.0781,307.035 76.0781,304.369 75.5,301.5C 74.914,301.709 74.414,302.043 74,302.5C 73.9152,304.085 73.7486,305.418 73.5,306.5C 72.7078,304.535 72.0412,302.535 71.5,300.5C 71.8457,299.304 72.3457,299.304 73,300.5C 73.5,299 74,297.5 74.5,296C 71.456,287.723 70.7894,279.223 72.5,270.5C 73.4255,269.359 74.2588,269.359 75,270.5C 75.4988,274.486 75.6655,278.486 75.5,282.5C 79.1788,282.724 82.8455,283.058 86.5,283.5C 86.3309,288.041 86.9975,288.374 88.5,284.5C 90.0025,288.374 90.6691,288.041 90.5,283.5C 89.5,283.5 88.5,283.5 87.5,283.5C 87.1632,279.692 87.6632,276.026 89,272.5C 89.8624,274.087 90.5291,275.754 91,277.5C 91.3333,276.833 91.6667,276.167 92,275.5C 92.7922,277.587 93.9588,279.421 95.5,281C 94.1367,282.945 93.3034,285.112 93,287.5C 91.9924,282.459 91.4924,282.792 91.5,288.5C 93.1992,288.34 94.8659,288.506 96.5,289C 97.1667,291 98.5,292.333 100.5,293C 104.661,293.145 108.661,293.145 112.5,293C 114.333,291.833 115.833,290.333 117,288.5C 116.81,282.05 118.977,276.55 123.5,272C 122.978,271.439 122.645,270.772 122.5,270C 124.8,266.905 127.633,264.405 131,262.5C 131.464,261.906 131.631,261.239 131.5,260.5C 132.919,259.549 134.585,259.216 136.5,259.5C 137.609,259.443 138.609,259.11 139.5,258.5 Z"/></g>
<g><path style="opacity:1" fill="#c62c1e" d="M 47.5,200.5 C 47.7845,202.415 47.4511,204.081 46.5,205.5C 45.7321,206.263 45.2321,207.263 45,208.5C 44.6667,206.5 44.3333,204.5 44,202.5C 43.6534,214.133 42.4867,225.633 40.5,237C 41.7522,239.041 42.4188,241.375 42.5,244C 42.3333,246.167 42.1667,248.333 42,250.5C 41.6667,246.5 41.3333,242.5 41,238.5C 40.5755,248.67 39.7422,258.67 38.5,268.5C 42.1055,278.598 43.6055,288.931 43,299.5C 43.9086,296.089 44.9086,292.755 46,289.5C 46.9907,290.43 47.4907,291.596 47.5,293C 46.2595,296.777 45.7595,300.61 46,304.5C 47.117,303.051 47.7837,301.384 48,299.5C 48.6708,298.748 49.5041,298.414 50.5,298.5C 50.8333,299.833 51.1667,301.167 51.5,302.5C 48.2343,306.521 46.7343,311.187 47,316.5C 43.7408,317.717 41.7408,320.05 41,323.5C 39.9127,320.064 39.0793,316.564 38.5,313C 39.2287,306.578 37.8954,300.578 34.5,295C 35.1344,292.925 35.4677,290.759 35.5,288.5C 34.1085,278.692 33.1085,268.859 32.5,259C 33.8333,245.333 33.8333,231.667 32.5,218C 36.0072,209.73 38.6738,201.23 40.5,192.5C 37.9641,188.358 37.9641,184.192 40.5,180C 37.667,176.886 37.8337,174.052 41,171.5C 41.5599,177.961 42.5599,177.961 44,171.5C 50.4291,177.56 51.7624,184.56 48,192.5C 47.7508,191.376 47.2508,190.376 46.5,189.5C 45.7964,192.704 45.1298,195.871 44.5,199C 45.5266,199.513 46.5266,200.013 47.5,200.5 Z"/></g>
<g><path style="opacity:1" fill="#db9fa0" d="M 98.5,265.5 C 99.6118,267.599 100.279,269.933 100.5,272.5C 98.8372,270.562 98.1706,268.228 98.5,265.5 Z"/></g>
<g><path style="opacity:1" fill="#ffedee" d="M 198.5,148.5 C 200.067,149.681 200.901,151.347 201,153.5C 201.832,243.668 201.666,333.668 200.5,423.5C 200.833,333.665 200.499,243.998 199.5,154.5C 199.483,152.435 199.15,150.435 198.5,148.5 Z"/></g>
<g><path style="opacity:1" fill="#ca7e7c" d="M 445.5,263.5 C 445.749,267.458 445.082,271.124 443.5,274.5C 443.646,270.613 444.313,266.946 445.5,263.5 Z"/></g>
<g><path style="opacity:1" fill="#f9d8d0" d="M 464.5,257.5 C 464.666,263.842 464.5,270.175 464,276.5C 463.8,278.32 462.966,279.653 461.5,280.5C 462.56,272.701 463.56,265.035 464.5,257.5 Z"/></g>
<g><path style="opacity:1" fill="#d26d6e" d="M 145.5,258.5 C 145.5,305.167 145.5,351.833 145.5,398.5C 144.209,398.737 143.209,398.404 142.5,397.5C 143.492,397.672 144.158,397.338 144.5,396.5C 144.5,350.5 144.5,304.5 144.5,258.5C 142.833,258.5 141.167,258.5 139.5,258.5C 138.609,259.11 137.609,259.443 136.5,259.5C 136.611,258.883 136.944,258.383 137.5,258C 140.367,257.199 143.034,257.366 145.5,258.5 Z"/></g>
<g><path style="opacity:1" fill="#edada6" d="M 460.5,281.5 C 460.833,281.5 461.167,281.5 461.5,281.5C 461.664,284.187 461.497,286.854 461,289.5C 460.722,290.416 460.222,291.082 459.5,291.5C 460.051,288.193 460.384,284.86 460.5,281.5 Z"/></g>
<g><path style="opacity:1" fill="#bd3e3b" d="M 282.5,125.5 C 279.626,129.914 277.293,134.581 275.5,139.5C 273.539,142.449 272.373,145.782 272,149.5C 271.833,242.001 271.333,334.334 270.5,426.5C 269.411,333.837 269.244,241.17 270,148.5C 270.781,147.271 271.281,145.938 271.5,144.5C 270.604,142.199 270.438,139.866 271,137.5C 273.974,134.016 276.807,130.349 279.5,126.5C 280.417,125.873 281.417,125.539 282.5,125.5 Z"/></g>
<g><path style="opacity:1" fill="#e89b9a" d="M 64.5,284.5 C 65.9238,286.515 66.5905,288.848 66.5,291.5C 65.0762,289.485 64.4095,287.152 64.5,284.5 Z"/></g>
<g><path style="opacity:1" fill="#b8625e" d="M 441.5,287.5 C 441.435,290.428 440.768,293.095 439.5,295.5C 439.294,292.505 439.96,289.838 441.5,287.5 Z"/></g>
<g><path style="opacity:1" fill="#ac1402" d="M 139.5,258.5 C 141.167,258.5 142.833,258.5 144.5,258.5C 144.5,304.5 144.5,350.5 144.5,396.5C 143.501,351.003 143.168,305.336 143.5,259.5C 141.901,259.768 140.568,259.434 139.5,258.5 Z"/></g>
<g><path style="opacity:1" fill="#b72a26" d="M 224.5,427.5 C 222.833,427.5 221.167,427.5 219.5,427.5C 218.883,427.389 218.383,427.056 218,426.5C 217.5,414.838 217.333,403.171 217.5,391.5C 217.5,314.833 217.5,238.167 217.5,161.5C 218.309,159.708 218.809,157.708 219,155.5C 219.834,160.17 220.668,164.837 221.5,169.5C 220.553,254.492 220.053,339.492 220,424.5C 222.405,425.274 224.905,425.774 227.5,426C 226.263,426.232 225.263,426.732 224.5,427.5 Z"/></g>
<g><path style="opacity:1" fill="#f9ded7" d="M 424.5,286.5 C 424.55,291.552 424.05,296.552 423,301.5C 420.315,306.651 417.481,311.651 414.5,316.5C 418.048,306.522 421.382,296.522 424.5,286.5 Z"/></g>
<g><path style="opacity:1" fill="#fbdad7" d="M 275.5,139.5 C 274.57,143.796 273.737,148.13 273,152.5C 272.17,243.237 272.336,333.903 273.5,424.5C 273.5,425.5 273.5,426.5 273.5,427.5C 272.167,427.5 270.833,427.5 269.5,427.5C 269.5,426.833 269.833,426.5 270.5,426.5C 271.333,334.334 271.833,242.001 272,149.5C 272.373,145.782 273.539,142.449 275.5,139.5 Z"/></g>
<g><path style="opacity:1" fill="#eeb2b1" d="M 32.5,303.5 C 34.2766,306.505 35.2766,309.838 35.5,313.5C 33.7234,310.495 32.7234,307.162 32.5,303.5 Z"/></g>
<g><path style="opacity:1" fill="#fef3e8" d="M 161.5,114.5 C 161.167,213.001 161.501,311.335 162.5,409.5C 166.208,410.963 169.874,412.63 173.5,414.5C 173.833,414.5 174.167,414.5 174.5,414.5C 174.833,415.167 175.167,415.833 175.5,416.5C 170.203,415.633 165.369,413.633 161,410.5C 160.168,311.666 160.334,212.999 161.5,114.5 Z"/></g>
<g><path style="opacity:1" fill="#f4c8c0" d="M 455.5,307.5 C 455.264,310.914 454.598,314.247 453.5,317.5C 452.817,317.863 452.15,318.196 451.5,318.5C 452.462,314.605 453.796,310.939 455.5,307.5 Z"/></g>
<g><path style="opacity:1" fill="#eca4a4" d="M 213.5,139.5 C 216.737,146.362 218.07,153.695 217.5,161.5C 217.5,238.167 217.5,314.833 217.5,391.5C 216.539,389.735 216.205,387.735 216.5,385.5C 216.667,308.166 216.5,230.833 216,153.5C 215.471,148.757 214.638,144.091 213.5,139.5 Z"/></g>
<g><path style="opacity:1" fill="#fee5e7" d="M 145.5,258.5 C 146.499,305.664 146.832,352.997 146.5,400.5C 144.518,400.005 142.518,399.505 140.5,399C 139.748,398.329 139.414,397.496 139.5,396.5C 140.609,396.557 141.609,396.89 142.5,397.5C 143.209,398.404 144.209,398.737 145.5,398.5C 145.5,351.833 145.5,305.167 145.5,258.5 Z"/></g>
<g><path style="opacity:1" fill="#f5d8d3" d="M 35.5,313.5 C 38.0089,319.01 40.3423,324.676 42.5,330.5C 41.5416,330.953 40.7083,331.619 40,332.5C 38.176,326.213 36.676,319.88 35.5,313.5 Z"/></g>
<g><path style="opacity:1" fill="#b22521" d="M 288.5,168.5 C 290.165,252.163 291.165,336.163 291.5,420.5C 295.512,418.117 299.845,417.117 304.5,417.5C 299.786,420.658 294.453,422.325 288.5,422.5C 288.5,337.833 288.5,253.167 288.5,168.5 Z"/></g>
<g><path style="opacity:1" fill="#faedde" d="M 76.5,320.5 C 76.8333,320.5 77.1667,320.5 77.5,320.5C 79.2383,324.884 81.0717,329.217 83,333.5C 88.4162,341.401 93.5828,349.401 98.5,357.5C 97.2921,356.766 95.9587,356.433 94.5,356.5C 94.5,355.167 94.5,353.833 94.5,352.5C 88.2492,353.748 85.9159,351.248 87.5,345C 82.9964,340.451 80.3298,335.284 79.5,329.5C 77.0412,327.073 76.0412,324.073 76.5,320.5 Z"/></g>
<g><path style="opacity:1" fill="#fcdad4" d="M 417.5,346.5 C 415.423,350.988 413.09,355.321 410.5,359.5C 409.5,360.167 408.5,360.833 407.5,361.5C 407.36,359.876 408.027,358.71 409.5,358C 409.167,357.667 408.833,357.333 408.5,357C 411.542,353.418 414.542,349.918 417.5,346.5 Z"/></g>
<g><path style="opacity:1" fill="#cd2e22" d="M 58.5,321.5 C 69.854,348.168 86.1873,371.502 107.5,391.5C 121.405,405.46 137.405,416.46 155.5,424.5C 162.851,429.179 170.851,432.512 179.5,434.5C 179.842,435.338 180.508,435.672 181.5,435.5C 183.515,436.924 185.848,437.59 188.5,437.5C 190.515,438.924 192.848,439.59 195.5,439.5C 197.214,440.738 199.214,441.405 201.5,441.5C 201.389,442.117 201.056,442.617 200.5,443C 204.423,443.47 207.757,444.97 210.5,447.5C 209.025,449.41 207.025,450.576 204.5,451C 207.348,452.924 210.348,454.591 213.5,456C 211.623,456.576 209.789,456.409 208,455.5C 206.273,455.646 206.106,456.313 207.5,457.5C 204.087,458.823 200.753,458.656 197.5,457C 202.628,455.438 202.628,454.105 197.5,453C 195.833,452.333 194.167,452.333 192.5,453C 191.167,453.667 191.167,454.333 192.5,455C 193.833,455.333 195.167,455.667 196.5,456C 195.667,456.167 194.833,456.333 194,456.5C 187.791,455.073 181.625,453.573 175.5,452C 173.981,450.782 172.814,449.282 172,447.5C 170.103,449.016 167.936,449.683 165.5,449.5C 164.609,448.89 163.609,448.557 162.5,448.5C 162.461,447.417 162.127,446.417 161.5,445.5C 154.202,442.848 147.202,439.682 140.5,436C 141.923,433.38 141.757,430.88 140,428.5C 138.632,429.993 138.465,431.493 139.5,433C 137.833,433.667 136.167,433.667 134.5,433C 129.102,429.302 123.435,426.136 117.5,423.5C 117.167,423.5 116.833,423.5 116.5,423.5C 117.598,422.603 117.598,421.77 116.5,421C 112.266,417.918 107.933,415.084 103.5,412.5C 103.167,412.5 102.833,412.5 102.5,412.5C 103.509,411.061 103.176,409.728 101.5,408.5C 93.9299,403.726 87.9299,397.393 83.5,389.5C 80.8043,387.789 78.1376,386.122 75.5,384.5C 73.8437,382.54 72.177,380.54 70.5,378.5C 68.1667,375.167 65.8333,371.833 63.5,368.5C 62.9006,364.557 61.234,361.057 58.5,358C 59.6341,356.984 59.3008,356.317 57.5,356C 58.5523,354.284 57.8856,353.284 55.5,353C 56.1667,352.667 56.8333,352.333 57.5,352C 56.8095,350.933 56.3095,349.766 56,348.5C 55.2569,350.645 54.4235,350.811 53.5,349C 54.34,347.233 55.6734,345.899 57.5,345C 56.376,344.751 55.376,344.251 54.5,343.5C 52.3707,339.579 50.5373,335.579 49,331.5C 46.6184,329.741 44.4517,327.741 42.5,325.5C 44.8726,322.751 47.3726,320.084 50,317.5C 50.3333,314.167 50.6667,310.833 51,307.5C 52.4876,311.289 53.9876,315.122 55.5,319C 56.1301,320.31 57.1301,321.144 58.5,321.5 Z"/></g>
<g><path style="opacity:1" fill="#b11006" d="M 165.5,115.5 C 163.838,212.123 162.838,308.79 162.5,405.5C 162.5,308.833 162.5,212.167 162.5,115.5C 163.5,115.5 164.5,115.5 165.5,115.5 Z"/></g>
<g><path style="opacity:1" fill="#fce7dd" d="M 51.5,350.5 C 55.1077,356.772 59.1077,362.772 63.5,368.5C 65.8333,371.833 68.1667,375.167 70.5,378.5C 67.6118,378.78 66.1118,377.447 66,374.5C 64.3551,372.612 62.5218,370.945 60.5,369.5C 58.7378,366.112 57.0711,362.779 55.5,359.5C 54.1266,359.657 52.7932,359.49 51.5,359C 52.5742,358.261 53.2409,357.261 53.5,356C 52.1153,354.403 51.4486,352.57 51.5,350.5 Z"/></g>
<g><path style="opacity:1" fill="#c92c20" d="M 178.5,121.5 C 179.5,122.167 180.5,122.833 181.5,123.5C 182.389,125.736 183.722,127.736 185.5,129.5C 179.323,129.388 178.323,131.221 182.5,135C 179.585,135.848 177.085,137.348 175,139.5C 174.228,139.355 173.561,139.022 173,138.5C 172.667,137.167 172.333,135.833 172,134.5C 171.808,161.517 171.308,188.517 170.5,215.5C 171.788,235.659 171.788,255.826 170.5,276C 171.218,294.33 171.885,312.663 172.5,331C 172.725,335.397 172.058,339.564 170.5,343.5C 172.003,346.421 172.669,349.588 172.5,353C 171.546,365.429 171.213,377.762 171.5,390C 174.094,392.922 175.594,396.422 176,400.5C 177.419,401.46 178.919,402.293 180.5,403C 179.833,403.667 179.167,404.333 178.5,405C 180.367,405.711 181.867,405.211 183,403.5C 183.346,401.782 183.846,400.115 184.5,398.5C 187.784,397.343 191.118,397.176 194.5,398C 196.429,403.722 196.762,409.556 195.5,415.5C 194.833,415.833 194.167,416.167 193.5,416.5C 191.085,412.883 188.252,412.55 185,415.5C 184.311,414.643 183.478,413.977 182.5,413.5C 179.916,414.393 177.249,414.726 174.5,414.5C 174.167,414.5 173.833,414.5 173.5,414.5C 173.611,413.883 173.944,413.383 174.5,413C 170.998,412.826 169.165,410.993 169,407.5C 168.047,409.592 166.714,409.925 165,408.5C 164.333,405.167 164.333,401.833 165,398.5C 166.333,397.167 167.667,397.167 169,398.5C 169.667,308.833 169.667,219.167 169,129.5C 168.374,127.009 167.541,127.009 166.5,129.5C 164.745,125.722 164.078,121.722 164.5,117.5C 167.05,117.561 168.55,118.894 169,121.5C 169.739,120.426 170.739,119.759 172,119.5C 173.879,121.013 176.046,121.679 178.5,121.5 Z"/></g>
<g><path style="opacity:1" fill="#c72c20" d="M 460.5,281.5 C 460.384,284.86 460.051,288.193 459.5,291.5C 457.869,296.69 456.536,302.024 455.5,307.5C 453.796,310.939 452.462,314.605 451.5,318.5C 445.738,334.686 438.405,350.02 429.5,364.5C 424.169,371.825 418.836,379.158 413.5,386.5C 382.399,421.566 344.066,445.233 298.5,457.5C 294.015,458.34 289.681,459.34 285.5,460.5C 277.661,461.241 269.994,462.241 262.5,463.5C 261.833,463.5 261.167,463.5 260.5,463.5C 243.44,463.937 226.44,463.271 209.5,461.5C 206.813,461.664 204.146,461.497 201.5,461C 194.158,459.363 186.825,457.53 179.5,455.5C 174.915,453.305 170.249,451.305 165.5,449.5C 167.936,449.683 170.103,449.016 172,447.5C 172.814,449.282 173.981,450.782 175.5,452C 181.625,453.573 187.791,455.073 194,456.5C 194.833,456.333 195.667,456.167 196.5,456C 195.167,455.667 193.833,455.333 192.5,455C 191.167,454.333 191.167,453.667 192.5,453C 194.167,452.333 195.833,452.333 197.5,453C 202.628,454.105 202.628,455.438 197.5,457C 200.753,458.656 204.087,458.823 207.5,457.5C 206.106,456.313 206.273,455.646 208,455.5C 209.789,456.409 211.623,456.576 213.5,456C 210.348,454.591 207.348,452.924 204.5,451C 207.025,450.576 209.025,449.41 210.5,447.5C 215.129,446.519 219.796,446.352 224.5,447C 222.096,447.508 221.429,448.675 222.5,450.5C 233.084,451.563 242.917,452.23 252,452.5C 257.664,451.394 263.164,449.894 268.5,448C 276.579,448.456 284.579,447.456 292.5,445C 293.904,443.663 295.404,442.497 297,441.5C 301.043,441.943 305.043,442.277 309,442.5C 309.75,441.874 310.584,441.374 311.5,441C 308.833,440.667 306.167,440.333 303.5,440C 306.669,438.627 309.335,436.793 311.5,434.5C 351.218,420.308 383.218,395.975 407.5,361.5C 408.5,360.833 409.5,360.167 410.5,359.5C 412.149,358.351 413.649,357.018 415,355.5C 416.15,356.424 417.15,356.424 418,355.5C 417.009,352.756 417.343,350.089 419,347.5C 421.866,345.453 424.033,342.786 425.5,339.5C 426.72,340.711 427.887,340.711 429,339.5C 430.405,335.831 430.572,332.165 429.5,328.5C 430.5,328.5 431.5,328.5 432.5,328.5C 432.281,327.325 432.614,326.325 433.5,325.5C 435.33,327.027 436.33,326.527 436.5,324C 436.057,322.175 435.723,320.342 435.5,318.5C 439.33,317.859 439.996,316.193 437.5,313.5C 438.035,311.729 438.869,311.396 440,312.5C 440.333,309.833 440.667,307.167 441,304.5C 443.926,301.071 444.759,297.238 443.5,293C 446.119,285.521 447.952,277.687 449,269.5C 450.117,270.949 450.784,272.616 451,274.5C 451.941,269.853 452.775,265.186 453.5,260.5C 452.866,252.158 452.2,243.825 451.5,235.5C 451.68,234.446 452.013,233.446 452.5,232.5C 451.306,230.377 450.64,228.043 450.5,225.5C 450.89,220.489 451.39,215.489 452,210.5C 452.333,210.167 452.667,209.833 453,209.5C 453.216,215.715 454.216,221.715 456,227.5C 456.333,222.5 456.667,217.5 457,212.5C 458.129,218.689 458.963,225.023 459.5,231.5C 460.281,230.271 460.781,228.938 461,227.5C 461.944,228.263 462.444,229.263 462.5,230.5C 461.959,233.208 461.292,235.874 460.5,238.5C 461.684,247.787 462.184,257.12 462,266.5C 458.07,271.054 457.57,276.054 460.5,281.5 Z"/></g>
<g><path style="opacity:1" fill="#b23024" d="M 111.5,371.5 C 112.922,371.709 114.255,372.209 115.5,373C 118.264,376.219 121.264,379.219 124.5,382C 126.367,382.711 127.867,382.211 129,380.5C 129.72,382.112 129.554,383.612 128.5,385C 130.464,386.451 131.797,388.284 132.5,390.5C 124.892,384.859 117.892,378.525 111.5,371.5 Z"/></g>
<g><path style="opacity:1" fill="#fce8e0" d="M 429.5,364.5 C 428.464,366.391 428.464,368.224 429.5,370C 428.552,370.483 427.552,370.649 426.5,370.5C 426.649,371.552 426.483,372.552 426,373.5C 422.261,377.253 419.261,381.586 417,386.5C 415.855,385.316 414.688,385.316 413.5,386.5C 418.836,379.158 424.169,371.825 429.5,364.5 Z"/></g>
<g><path style="opacity:1" fill="#fcfaf2" d="M 102.5,362.5 C 105.728,365.306 108.728,368.306 111.5,371.5C 117.892,378.525 124.892,384.859 132.5,390.5C 134.858,392.529 137.192,394.529 139.5,396.5C 139.414,397.496 139.748,398.329 140.5,399C 142.518,399.505 144.518,400.005 146.5,400.5C 145.766,401.708 145.433,403.041 145.5,404.5C 140.488,404.92 135.488,405.087 130.5,405C 131.022,404.439 131.355,403.772 131.5,403C 129.911,399.703 127.245,398.203 123.5,398.5C 123.5,397.167 123.5,395.833 123.5,394.5C 126.187,394.664 128.854,394.497 131.5,394C 129.91,392.954 128.41,391.787 127,390.5C 126.667,390.833 126.333,391.167 126,391.5C 125.311,390.643 124.478,389.977 123.5,389.5C 122.573,391.946 120.906,392.779 118.5,392C 115.35,388.521 111.85,385.354 108,382.5C 107.601,382.728 107.435,383.062 107.5,383.5C 106.504,383.586 105.671,383.252 105,382.5C 104.433,379.832 103.933,377.166 103.5,374.5C 101.571,374.769 99.9047,374.269 98.5,373C 101.904,372.3 104.904,373.133 107.5,375.5C 108.5,375.167 109.167,374.5 109.5,373.5C 105.136,371.134 102.802,367.467 102.5,362.5 Z"/></g>
<g><path style="opacity:1" fill="#b32f26" d="M 75.5,384.5 C 78.1376,386.122 80.8043,387.789 83.5,389.5C 87.9299,397.393 93.9299,403.726 101.5,408.5C 103.176,409.728 103.509,411.061 102.5,412.5C 92.6062,404.061 83.6062,394.728 75.5,384.5 Z"/></g>
<g><path style="opacity:1" fill="#ad2f29" d="M 103.5,412.5 C 107.933,415.084 112.266,417.918 116.5,421C 117.598,421.77 117.598,422.603 116.5,423.5C 111.848,420.179 107.515,416.513 103.5,412.5 Z"/></g>
<g><path style="opacity:1" fill="#eea89c" d="M 183.5,418.5 C 186.746,419.054 189.746,420.054 192.5,421.5C 189.008,421.554 186.008,420.554 183.5,418.5 Z"/></g>
<g><path style="opacity:1" fill="#fae0d9" d="M 155.5,424.5 C 159.493,424.305 163.493,425.138 167.5,427C 171.093,430.289 175.093,432.789 179.5,434.5C 170.851,432.512 162.851,429.179 155.5,424.5 Z"/></g>
<g><path style="opacity:1" fill="#facdc5" d="M 269.5,427.5 C 268.391,428.29 267.058,428.79 265.5,429C 254.326,429.826 243.326,429.659 232.5,428.5C 244.85,428.618 257.183,428.285 269.5,427.5 Z"/></g>
<g><path style="opacity:1" fill="#f1b4ad" d="M 181.5,435.5 C 184.152,435.41 186.485,436.076 188.5,437.5C 185.848,437.59 183.515,436.924 181.5,435.5 Z"/></g>
<g><path style="opacity:1" fill="#f3bbb7" d="M 188.5,437.5 C 191.152,437.41 193.485,438.076 195.5,439.5C 192.848,439.59 190.515,438.924 188.5,437.5 Z"/></g>
<g><path style="opacity:1" fill="#e79392" d="M 195.5,439.5 C 198.152,439.41 200.485,440.076 202.5,441.5C 202.167,441.5 201.833,441.5 201.5,441.5C 199.214,441.405 197.214,440.738 195.5,439.5 Z"/></g>
<g><path style="opacity:1" fill="#b83127" d="M 117.5,423.5 C 123.435,426.136 129.102,429.302 134.5,433C 136.167,433.667 137.833,433.667 139.5,433C 138.465,431.493 138.632,429.993 140,428.5C 141.757,430.88 141.923,433.38 140.5,436C 147.202,439.682 154.202,442.848 161.5,445.5C 162.127,446.417 162.461,447.417 162.5,448.5C 146.191,442.512 131.191,434.179 117.5,423.5 Z"/></g>
<g><path style="opacity:1" fill="#c02b22" d="M 311.5,434.5 C 309.335,436.793 306.669,438.627 303.5,440C 306.167,440.333 308.833,440.667 311.5,441C 310.584,441.374 309.75,441.874 309,442.5C 305.043,442.277 301.043,441.943 297,441.5C 295.404,442.497 293.904,443.663 292.5,445C 284.579,447.456 276.579,448.456 268.5,448C 263.164,449.894 257.664,451.394 252,452.5C 242.917,452.23 233.084,451.563 222.5,450.5C 221.429,448.675 222.096,447.508 224.5,447C 219.796,446.352 215.129,446.519 210.5,447.5C 207.757,444.97 204.423,443.47 200.5,443C 201.056,442.617 201.389,442.117 201.5,441.5C 201.833,441.5 202.167,441.5 202.5,441.5C 231.555,448.358 260.555,448.025 289.5,440.5C 296.874,438.626 304.208,436.626 311.5,434.5 Z"/></g>
<g><path style="opacity:1" fill="#f8d9d1" d="M 162.5,448.5 C 163.609,448.557 164.609,448.89 165.5,449.5C 170.249,451.305 174.915,453.305 179.5,455.5C 174.208,455.31 169.208,453.977 164.5,451.5C 163.807,450.482 163.141,449.482 162.5,448.5 Z"/></g>
<g><path style="opacity:1" fill="#f0b8b7" d="M 298.5,457.5 C 294.726,460.161 290.393,461.161 285.5,460.5C 289.681,459.34 294.015,458.34 298.5,457.5 Z"/></g>
<g><path style="opacity:1" fill="#e49b99" d="M 285.5,460.5 C 278.146,462.869 270.479,463.869 262.5,463.5C 269.994,462.241 277.661,461.241 285.5,460.5 Z"/></g>
<g><path style="opacity:1" fill="#e38e8e" d="M 209.5,461.5 C 226.44,463.271 243.44,463.937 260.5,463.5C 247.673,464.66 234.673,464.827 221.5,464C 217.264,463.665 213.264,462.832 209.5,461.5 Z"/></g>
<g><path style="opacity:1" fill="#f2ccd6" d="M 349.5,464.5 C 367.32,464.015 384.987,464.515 402.5,466C 387.319,467.648 371.986,467.982 356.5,467C 353.639,467.03 351.305,466.197 349.5,464.5 Z"/></g>
</svg>
